# This file uses centimeters as units for non-parametric coordinates.

mtllib DECone.mtl
g default
v 0.467948 0.000000 -0.094374
v 0.437510 -0.000000 -0.188050
v 0.388262 0.000000 -0.273351
v 0.322355 0.000000 -0.346548
v 0.242670 -0.000000 -0.404443
v 0.152689 -0.000000 -0.444505
v 0.056344 -0.000000 -0.464983
v -0.042152 -0.000000 -0.464983
v -0.138496 -0.000000 -0.444505
v -0.228477 -0.000000 -0.404443
v -0.308163 0.000000 -0.346548
v -0.374070 0.000000 -0.273351
v -0.423318 -0.000000 -0.188050
v -0.453755 0.000000 -0.094374
v -0.464051 0.000000 0.003583
v -0.453755 -0.000000 0.101540
v -0.423318 -0.000000 0.195215
v -0.374070 -0.000000 0.280516
v -0.308163 0.000000 0.353713
v -0.228477 0.000000 0.411608
v -0.138496 -0.000000 0.451670
v -0.042152 -0.000000 0.472148
v 0.056344 0.000000 0.472148
v 0.152688 -0.000000 0.451670
v 0.242669 -0.000000 0.411608
v 0.322355 -0.000000 0.353713
v 0.388262 -0.000000 0.280516
v 0.437510 -0.000000 0.195215
v 0.467947 -0.000000 0.101540
v 0.478243 0.000000 0.003583
v 0.018332 1.000000 0.001194
v 0.017591 1.000000 -0.001090
v 0.016390 1.000000 -0.003170
v 0.014783 1.000000 -0.004954
v 0.012840 1.000000 -0.006366
v 0.010646 1.000000 -0.007343
v 0.008297 1.000000 -0.007842
v 0.005895 1.000000 -0.007842
v 0.003546 1.000000 -0.007343
v 0.001352 1.000000 -0.006366
v -0.000591 1.000000 -0.004954
v -0.002198 1.000000 -0.003170
v -0.003399 1.000000 -0.001090
v -0.004141 1.000000 0.001194
v -0.004393 1.000000 0.003583
v -0.004141 1.000000 0.005971
v -0.003399 1.000000 0.008255
v -0.002198 1.000000 0.010335
v -0.000591 1.000000 0.012119
v 0.001352 1.000000 0.013531
v 0.003546 1.000000 0.014508
v 0.005895 1.000000 0.015007
v 0.008297 1.000000 0.015007
v 0.010646 1.000000 0.014508
v 0.012840 1.000000 0.013531
v 0.014783 1.000000 0.012119
v 0.016390 1.000000 0.010335
v 0.017591 1.000000 0.008255
v 0.018332 1.000000 0.005971
v 0.018584 1.000000 0.003583
v 0.007096 1.000000 0.003583
v 0.017591 -1.000000 -0.001090
v 0.018332 -1.000000 0.001194
v 0.016390 -1.000000 -0.003170
v 0.014783 -1.000000 -0.004954
v 0.012840 -1.000000 -0.006366
v 0.010646 -1.000000 -0.007343
v 0.008297 -1.000000 -0.007842
v 0.005895 -1.000000 -0.007842
v 0.003546 -1.000000 -0.007343
v 0.001352 -1.000000 -0.006366
v -0.000591 -1.000000 -0.004954
v -0.002198 -1.000000 -0.003170
v -0.003399 -1.000000 -0.001090
v -0.004141 -1.000000 0.001194
v -0.004393 -1.000000 0.003583
v -0.004141 -1.000000 0.005971
v -0.003399 -1.000000 0.008255
v -0.002198 -1.000000 0.010335
v -0.000591 -1.000000 0.012119
v 0.001352 -1.000000 0.013531
v 0.003546 -1.000000 0.014508
v 0.005895 -1.000000 0.015007
v 0.008297 -1.000000 0.015007
v 0.010646 -1.000000 0.014508
v 0.012840 -1.000000 0.013531
v 0.014783 -1.000000 0.012119
v 0.016390 -1.000000 0.010335
v 0.017591 -1.000000 0.008255
v 0.018332 -1.000000 0.005971
v 0.018584 -1.000000 0.003583
v 0.007096 -1.000000 0.003583
vt 0.001385 0.501682
vt 0.034722 0.501682
vt 0.068059 0.501682
vt 0.101395 0.501682
vt 0.134732 0.501682
vt 0.168068 0.501682
vt 0.201405 0.501682
vt 0.234742 0.501682
vt 0.268079 0.501682
vt 0.301415 0.501682
vt 0.334751 0.501682
vt 0.368088 0.501682
vt 0.401425 0.501682
vt 0.434761 0.501682
vt 0.468098 0.501682
vt 0.501435 0.501682
vt 0.534771 0.501682
vt 0.568108 0.501682
vt 0.601444 0.501682
vt 0.634781 0.501682
vt 0.668118 0.501682
vt 0.701454 0.501682
vt 0.734791 0.501682
vt 0.768128 0.501682
vt 0.801465 0.501682
vt 0.834801 0.501682
vt 0.868137 0.501682
vt 0.901474 0.501682
vt 0.934811 0.501682
vt 0.968148 0.501682
vt 1.001484 0.501682
vt 0.000380 0.999711
vt 0.033778 0.999711
vt 0.067176 0.999711
vt 0.100574 0.999711
vt 0.133972 0.999711
vt 0.167370 0.999711
vt 0.200768 0.999711
vt 0.234166 0.999711
vt 0.267564 0.999711
vt 0.300961 0.999711
vt 0.334359 0.999711
vt 0.367757 0.999711
vt 0.401155 0.999711
vt 0.434553 0.999711
vt 0.467951 0.999711
vt 0.501349 0.999711
vt 0.534747 0.999711
vt 0.568144 0.999711
vt 0.601542 0.999711
vt 0.634940 0.999711
vt 0.668338 0.999711
vt 0.701736 0.999711
vt 0.735134 0.999711
vt 0.768532 0.999711
vt 0.801930 0.999711
vt 0.835328 0.999711
vt 0.868726 0.999711
vt 0.902124 0.999711
vt 0.935522 0.999711
vt 0.968919 0.999711
vt 1.002317 0.999711
vt 0.154314 -0.025912
vt 0.144637 -0.056978
vt 0.128980 -0.085267
vt 0.108026 -0.109542
vt 0.082692 -0.128742
vt 0.054085 -0.142028
vt 0.023454 -0.148820
vt -0.007860 -0.148820
vt -0.038491 -0.142028
vt -0.067098 -0.128742
vt -0.092432 -0.109542
vt -0.113386 -0.085267
vt -0.129043 -0.056978
vt -0.138720 -0.025912
vt -0.141993 0.006575
vt -0.138720 0.039061
vt -0.129043 0.070127
vt -0.113386 0.098416
vt -0.092432 0.122691
vt -0.067098 0.141891
vt -0.038491 0.155177
vt -0.007860 0.161969
vt 0.023454 0.161969
vt 0.054085 0.155177
vt 0.082692 0.141891
vt 0.108026 0.122691
vt 0.128980 0.098416
vt 0.144637 0.070127
vt 0.154314 0.039061
vt 0.157587 0.006575
vt 0.007797 0.000325
vt -0.140717 0.006575
vt -0.137497 -0.025912
vt 0.035666 0.003652
vt 0.002390 0.003652
vt -0.127977 -0.056978
vt 0.068941 0.003652
vt -0.112573 -0.085267
vt 0.102216 0.003652
vt -0.091958 -0.109542
vt 0.135491 0.003652
vt -0.067034 -0.128742
vt 0.168767 0.003652
vt -0.038889 -0.142028
vt 0.202042 0.003652
vt -0.008754 -0.148820
vt 0.235318 0.003652
vt 0.022054 -0.148820
vt 0.268593 0.003652
vt 0.052189 -0.142028
vt 0.301868 0.003652
vt 0.080334 -0.128742
vt 0.335143 0.003652
vt 0.105258 -0.109542
vt 0.368419 0.003652
vt 0.125873 -0.085267
vt 0.401694 0.003652
vt 0.141277 -0.056978
vt 0.434970 0.003652
vt 0.150797 -0.025912
vt 0.468245 0.003652
vt 0.154018 0.006575
vt 0.501520 0.003652
vt 0.150797 0.039061
vt 0.534796 0.003652
vt 0.141277 0.070127
vt 0.568071 0.003652
vt 0.125873 0.098416
vt 0.601347 0.003652
vt 0.105258 0.122691
vt 0.634622 0.003652
vt 0.080334 0.141891
vt 0.667897 0.003652
vt 0.052189 0.155177
vt 0.701173 0.003652
vt 0.022054 0.161969
vt 0.734448 0.003652
vt -0.008754 0.161969
vt 0.767724 0.003652
vt -0.038889 0.155177
vt 0.800999 0.003652
vt -0.067034 0.141891
vt 0.834274 0.003652
vt -0.091958 0.122691
vt 0.867549 0.003652
vt -0.112573 0.098416
vt 0.900825 0.003652
vt 0.006650 0.000325
vt 0.934101 0.003652
vt -0.127977 0.070127
vt 0.967376 0.003652
vt -0.137497 0.039061
vt 1.000651 0.003652
vn -0.898061 -0.417119 0.139638
vn -0.849422 -0.417127 0.323245
vn -0.888767 -0.417650 0.188844
vn -0.830082 -0.417650 0.369504
vn -0.763613 -0.417125 0.492851
vn -0.735119 -0.417650 0.534012
vn -0.644499 -0.417121 0.640805
vn -0.608027 -0.417650 0.675183
vn -0.497218 -0.417127 0.760775
vn -0.454361 -0.417650 0.786845
vn -0.328079 -0.417125 0.847568
vn -0.280838 -0.417650 0.864117
vn -0.144684 -0.417121 0.897261
vn -0.095041 -0.417650 0.903624
vn 0.044907 -0.417123 0.907740
vn 0.094909 -0.417650 0.903638
vn 0.232673 -0.417128 0.878560
vn 0.280711 -0.417650 0.864159
vn 0.410345 -0.417125 0.810940
vn 0.454246 -0.417650 0.786911
vn 0.569939 -0.417120 0.707941
vn 0.607928 -0.417650 0.675271
vn 0.704641 -0.417127 0.574009
vn 0.735041 -0.417650 0.534119
vn 0.808623 -0.417125 0.414892
vn 0.830027 -0.417650 0.369626
vn 0.877195 -0.417120 0.237780
vn 0.888739 -0.417650 0.188975
vn 0.907462 -0.417130 0.050152
vn 0.908608 -0.417650 0.000066
vn 0.898061 -0.417119 -0.139635
vn 0.888767 -0.417650 -0.188845
vn 0.849422 -0.417127 -0.323244
vn 0.830082 -0.417650 -0.369504
vn 0.763610 -0.417124 -0.492856
vn 0.735119 -0.417650 -0.534012
vn 0.644500 -0.417120 -0.640804
vn 0.608027 -0.417650 -0.675183
vn 0.497218 -0.417127 -0.760775
vn 0.454361 -0.417650 -0.786845
vn 0.328079 -0.417126 -0.847567
vn 0.280838 -0.417650 -0.864117
vn 0.144684 -0.417122 -0.897260
vn 0.095041 -0.417650 -0.903624
vn -0.044907 -0.417123 -0.907740
vn -0.094909 -0.417650 -0.903638
vn -0.232673 -0.417127 -0.878560
vn -0.280711 -0.417650 -0.864159
vn -0.410346 -0.417125 -0.810940
vn -0.454246 -0.417650 -0.786911
vn -0.569939 -0.417121 -0.707941
vn -0.607928 -0.417650 -0.675271
vn -0.704641 -0.417127 -0.574008
vn -0.735041 -0.417650 -0.534120
vn -0.808623 -0.417125 -0.414892
vn -0.830027 -0.417650 -0.369626
vn -0.877195 -0.417121 -0.237779
vn -0.888739 -0.417650 -0.188975
vn -0.907462 -0.417130 -0.050152
vn -0.908608 -0.417650 -0.000069
vn 0.000000 -1.000000 0.000000
vn 0.000000 -1.000000 0.000000
vn 0.000000 -1.000000 0.000000
vn 0.000000 -1.000000 0.000000
vn 0.000000 -1.000000 0.000000
vn 0.000000 -1.000000 0.000000
vn 0.000000 -1.000000 0.000000
vn 0.000000 -1.000000 0.000000
vn 0.000000 -1.000000 0.000000
vn 0.000000 -1.000000 0.000000
vn 0.000000 -1.000000 0.000000
vn 0.000000 -1.000000 0.000000
vn 0.000000 -1.000000 0.000000
vn 0.000000 -1.000000 0.000000
vn 0.000000 -1.000000 0.000000
vn 0.000000 -1.000000 0.000000
vn 0.000000 -1.000000 0.000000
vn 0.000000 -1.000000 0.000000
vn 0.000000 -1.000000 0.000000
vn 0.000000 -1.000000 0.000000
vn 0.000000 -1.000000 0.000000
vn 0.000000 -1.000000 0.000000
vn 0.000000 -1.000000 0.000000
vn 0.000000 -1.000000 0.000000
vn 0.000000 -1.000000 0.000000
vn 0.000000 -1.000000 0.000000
vn 0.000000 -1.000000 0.000000
vn 0.000000 -1.000000 0.000000
vn 0.000000 -1.000000 0.000000
vn 0.000000 -1.000000 0.000000
vn 0.000000 -1.000000 0.000000
vn -0.808624 0.417125 0.414892
vn -0.877195 0.417120 0.237781
vn -0.830027 0.417650 0.369625
vn -0.888739 0.417650 0.188974
vn -0.704641 0.417127 0.574009
vn -0.735041 0.417650 0.534119
vn -0.569939 0.417121 0.707940
vn -0.607928 0.417650 0.675272
vn -0.410345 0.417125 0.810940
vn -0.454246 0.417650 0.786911
vn -0.232673 0.417127 0.878560
vn -0.280711 0.417650 0.864159
vn -0.044907 0.417123 0.907740
vn -0.094909 0.417650 0.903638
vn 0.144684 0.417121 0.897261
vn 0.095041 0.417650 0.903624
vn 0.328080 0.417125 0.847567
vn 0.280838 0.417650 0.864117
vn 0.497218 0.417127 0.760775
vn 0.454361 0.417650 0.786845
vn 0.644500 0.417120 0.640805
vn 0.608027 0.417650 0.675183
vn 0.763612 0.417124 0.492852
vn 0.735119 0.417650 0.534012
vn 0.849423 0.417126 0.323245
vn 0.830082 0.417650 0.369504
vn 0.898061 0.417119 0.139640
vn 0.888767 0.417650 0.188845
vn 0.907462 0.417130 -0.050153
vn 0.908608 0.417650 -0.000067
vn 0.877197 0.417120 -0.237775
vn 0.888739 0.417650 -0.188975
vn 0.808623 0.417125 -0.414892
vn 0.830028 0.417650 -0.369626
vn 0.704639 0.417126 -0.574012
vn 0.735041 0.417650 -0.534120
vn 0.569938 0.417120 -0.707942
vn 0.607928 0.417650 -0.675272
vn 0.410345 0.417124 -0.810940
vn 0.454246 0.417650 -0.786911
vn 0.232673 0.417127 -0.878560
vn 0.280711 0.417650 -0.864159
vn 0.044907 0.417123 -0.907740
vn 0.094909 0.417650 -0.903638
vn -0.144684 0.417121 -0.897261
vn -0.095041 0.417650 -0.903624
vn -0.328079 0.417125 -0.847568
vn -0.280838 0.417650 -0.864117
vn -0.497218 0.417127 -0.760776
vn -0.454362 0.417650 -0.786845
vn -0.644499 0.417121 -0.640805
vn -0.608027 0.417650 -0.675182
vn -0.763612 0.417124 -0.492853
vn -0.735119 0.417650 -0.534012
vn -0.849423 0.417126 -0.323244
vn -0.830082 0.417650 -0.369504
vn -0.898060 0.417119 -0.139640
vn -0.888767 0.417650 -0.188845
vn -0.907462 0.417130 0.050150
vn -0.908608 0.417650 0.000064
vn 0.000000 1.000000 0.000000
vn 0.000000 1.000000 0.000000
vn 0.000000 1.000000 0.000000
vn 0.000000 1.000000 0.000000
vn 0.000000 1.000000 0.000000
vn 0.000000 1.000000 0.000000
vn 0.000000 1.000000 0.000000
vn 0.000000 1.000000 0.000000
vn 0.000000 1.000000 0.000000
vn 0.000000 1.000000 0.000000
vn 0.000000 1.000000 0.000000
vn 0.000000 1.000000 0.000000
vn 0.000000 1.000000 0.000000
vn 0.000000 1.000000 0.000000
vn 0.000000 1.000000 0.000000
vn 0.000000 1.000000 0.000000
vn 0.000000 1.000000 0.000000
vn 0.000000 1.000000 0.000000
vn 0.000000 1.000000 0.000000
vn 0.000000 1.000000 0.000000
vn 0.000000 1.000000 0.000000
vn 0.000000 1.000000 0.000000
vn 0.000000 1.000000 0.000000
vn 0.000000 1.000000 0.000000
vn 0.000000 1.000000 0.000000
vn 0.000000 1.000000 0.000000
vn 0.000000 1.000000 0.000000
vn 0.000000 1.000000 0.000000
vn 0.000000 1.000000 0.000000
vn 0.000000 1.000000 0.000000
vn 0.000000 1.000000 0.000000
s 1
g pCylinder1
usemtl initialShadingGroup
f 31/32/1 32/33/2 1/1/3
f 1/1/3 32/33/2 2/2/4
f 32/33/2 33/34/5 2/2/4
f 2/2/4 33/34/5 3/3/6
f 33/34/5 34/35/7 3/3/6
f 3/3/6 34/35/7 4/4/8
f 34/35/7 35/36/9 4/4/8
f 4/4/8 35/36/9 5/5/10
f 35/36/9 36/37/11 5/5/10
f 5/5/10 36/37/11 6/6/12
f 36/37/11 37/38/13 6/6/12
f 6/6/12 37/38/13 7/7/14
f 37/38/13 38/39/15 7/7/14
f 7/7/14 38/39/15 8/8/16
f 38/39/15 39/40/17 8/8/16
f 8/8/16 39/40/17 9/9/18
f 39/40/17 40/41/19 9/9/18
f 9/9/18 40/41/19 10/10/20
f 40/41/19 41/42/21 10/10/20
f 10/10/20 41/42/21 11/11/22
f 41/42/21 42/43/23 11/11/22
f 11/11/22 42/43/23 12/12/24
f 42/43/23 43/44/25 12/12/24
f 12/12/24 43/44/25 13/13/26
f 43/44/25 44/45/27 13/13/26
f 13/13/26 44/45/27 14/14/28
f 44/45/27 45/46/29 14/14/28
f 14/14/28 45/46/29 15/15/30
f 45/46/29 46/47/31 15/15/30
f 15/15/30 46/47/31 16/16/32
f 46/47/31 47/48/33 16/16/32
f 16/16/32 47/48/33 17/17/34
f 47/48/33 48/49/35 17/17/34
f 17/17/34 48/49/35 18/18/36
f 48/49/35 49/50/37 18/18/36
f 18/18/36 49/50/37 19/19/38
f 49/50/37 50/51/39 19/19/38
f 19/19/38 50/51/39 20/20/40
f 50/51/39 51/52/41 20/20/40
f 20/20/40 51/52/41 21/21/42
f 51/52/41 52/53/43 21/21/42
f 21/21/42 52/53/43 22/22/44
f 52/53/43 53/54/45 22/22/44
f 22/22/44 53/54/45 23/23/46
f 53/54/45 54/55/47 23/23/46
f 23/23/46 54/55/47 24/24/48
f 54/55/47 55/56/49 24/24/48
f 24/24/48 55/56/49 25/25/50
f 55/56/49 56/57/51 25/25/50
f 25/25/50 56/57/51 26/26/52
f 56/57/51 57/58/53 26/26/52
f 26/26/52 57/58/53 27/27/54
f 57/58/53 58/59/55 27/27/54
f 27/27/54 58/59/55 28/28/56
f 58/59/55 59/60/57 28/28/56
f 28/28/56 59/60/57 29/29/58
f 59/60/57 60/61/59 29/29/58
f 29/29/58 60/61/59 30/30/60
f 60/61/59 31/62/1 30/30/60
f 30/30/60 31/62/1 1/31/3
s 2
f 31/91/61 61/93/62 32/90/63
f 32/90/63 61/93/62 33/89/64
f 33/89/64 61/93/62 34/88/65
f 34/88/65 61/93/62 35/87/66
f 35/87/66 61/93/62 36/86/67
f 36/86/67 61/93/62 37/85/68
f 37/85/68 61/93/62 38/84/69
f 38/84/69 61/93/62 39/83/70
f 39/83/70 61/93/62 40/82/71
f 40/82/71 61/93/62 41/81/72
f 41/81/72 61/93/62 42/80/73
f 42/80/73 61/93/62 43/79/74
f 43/79/74 61/93/62 44/78/75
f 44/78/75 61/93/62 45/77/76
f 45/77/76 61/93/62 46/76/77
f 46/76/77 61/93/62 47/75/78
f 47/75/78 61/93/62 48/74/79
f 48/74/79 61/93/62 49/73/80
f 49/73/80 61/93/62 50/72/81
f 50/72/81 61/93/62 51/71/82
f 51/71/82 61/93/62 52/70/83
f 52/70/83 61/93/62 53/69/84
f 53/69/84 61/93/62 54/68/85
f 54/68/85 61/93/62 55/67/86
f 55/67/86 61/93/62 56/66/87
f 56/66/87 61/93/62 57/65/88
f 57/65/88 61/93/62 58/64/89
f 58/64/89 61/93/62 59/63/90
f 59/63/90 61/93/62 60/92/91
f 60/92/91 61/93/62 31/91/61
s 3
f 62/96/92 63/97/93 2/2/94
f 1/1/95 2/2/94 63/97/93
f 64/99/96 62/96/92 3/3/97
f 2/2/94 3/3/97 62/96/92
f 65/101/98 64/99/96 4/4/99
f 3/3/97 4/4/99 64/99/96
f 66/103/100 65/101/98 5/5/101
f 4/4/99 5/5/101 65/101/98
f 67/105/102 66/103/100 6/6/103
f 5/5/101 6/6/103 66/103/100
f 68/107/104 67/105/102 7/7/105
f 6/6/103 7/7/105 67/105/102
f 69/109/106 68/107/104 8/8/107
f 7/7/105 8/8/107 68/107/104
f 70/111/108 69/109/106 9/9/109
f 8/8/107 9/9/109 69/109/106
f 71/113/110 70/111/108 10/10/111
f 9/9/109 10/10/111 70/111/108
f 72/115/112 71/113/110 11/11/113
f 10/10/111 11/11/113 71/113/110
f 73/117/114 72/115/112 12/12/115
f 11/11/113 12/12/115 72/115/112
f 74/119/116 73/117/114 13/13/117
f 12/12/115 13/13/117 73/117/114
f 75/121/118 74/119/116 14/14/119
f 13/13/117 14/14/119 74/119/116
f 76/123/120 75/121/118 15/15/121
f 14/14/119 15/15/121 75/121/118
f 77/125/122 76/123/120 16/16/123
f 15/15/121 16/16/123 76/123/120
f 78/127/124 77/125/122 17/17/125
f 16/16/123 17/17/125 77/125/122
f 79/129/126 78/127/124 18/18/127
f 17/17/125 18/18/127 78/127/124
f 80/131/128 79/129/126 19/19/129
f 18/18/127 19/19/129 79/129/126
f 81/133/130 80/131/128 20/20/131
f 19/19/129 20/20/131 80/131/128
f 82/135/132 81/133/130 21/21/133
f 20/20/131 21/21/133 81/133/130
f 83/137/134 82/135/132 22/22/135
f 21/21/133 22/22/135 82/135/132
f 84/139/136 83/137/134 23/23/137
f 22/22/135 23/23/137 83/137/134
f 85/141/138 84/139/136 24/24/139
f 23/23/137 24/24/139 84/139/136
f 86/143/140 85/141/138 25/25/141
f 24/24/139 25/25/141 85/141/138
f 87/145/142 86/143/140 26/26/143
f 25/25/141 26/26/143 86/143/140
f 88/147/144 87/145/142 27/27/145
f 26/26/143 27/27/145 87/145/142
f 89/149/146 88/147/144 28/28/147
f 27/27/145 28/28/147 88/147/144
f 90/151/148 89/149/146 29/29/149
f 28/28/147 29/29/149 89/149/146
f 91/153/150 90/151/148 30/30/151
f 29/29/149 30/30/151 90/151/148
f 63/155/93 91/153/150 1/31/95
f 30/30/151 1/31/95 91/153/150
s 4
f 63/154/152 62/152/153 92/150/154
f 62/152/153 64/148/155 92/150/154
f 64/148/155 65/146/156 92/150/154
f 65/146/156 66/144/157 92/150/154
f 66/144/157 67/142/158 92/150/154
f 67/142/158 68/140/159 92/150/154
f 68/140/159 69/138/160 92/150/154
f 69/138/160 70/136/161 92/150/154
f 70/136/161 71/134/162 92/150/154
f 71/134/162 72/132/163 92/150/154
f 72/132/163 73/130/164 92/150/154
f 73/130/164 74/128/165 92/150/154
f 74/128/165 75/126/166 92/150/154
f 75/126/166 76/124/167 92/150/154
f 76/124/167 77/122/168 92/150/154
f 77/122/168 78/120/169 92/150/154
f 78/120/169 79/118/170 92/150/154
f 79/118/170 80/116/171 92/150/154
f 80/116/171 81/114/172 92/150/154
f 81/114/172 82/112/173 92/150/154
f 82/112/173 83/110/174 92/150/154
f 83/110/174 84/108/175 92/150/154
f 84/108/175 85/106/176 92/150/154
f 85/106/176 86/104/177 92/150/154
f 86/104/177 87/102/178 92/150/154
f 87/102/178 88/100/179 92/150/154
f 88/100/179 89/98/180 92/150/154
f 89/98/180 90/95/181 92/150/154
f 90/95/181 91/94/182 92/150/154
f 91/94/182 63/154/152 92/150/154
