# This file uses centimeters as units for non-parametric coordinates.

mtllib DECone.mtl
g default
v 0.349583 0.005127 -0.067591
v 0.325659 0.005127 -0.141222
v 0.286949 0.005127 -0.208271
v 0.235144 0.005127 -0.265805
v 0.172510 0.005127 -0.311312
v 0.101782 0.005127 -0.342802
v 0.026054 0.005127 -0.358898
v -0.051367 0.005127 -0.358898
v -0.127096 0.005127 -0.342802
v -0.197823 0.005127 -0.311312
v -0.260457 0.005127 -0.265805
v -0.312262 0.005127 -0.208271
v -0.350972 0.005127 -0.141223
v -0.374896 0.005127 -0.067591
v -0.382989 0.005127 0.009405
v -0.374896 0.005127 0.086402
v -0.350972 0.005127 0.160033
v -0.312262 0.005127 0.227081
v -0.260458 0.005127 0.284616
v -0.197823 0.005127 0.330123
v -0.127096 0.005127 0.361612
v -0.051367 0.005127 0.377709
v 0.026054 0.005127 0.377709
v 0.101782 0.005127 0.361612
v 0.172509 0.005127 0.330123
v 0.235144 0.005127 0.284616
v 0.286948 0.005127 0.227081
v 0.325659 0.005127 0.160033
v 0.349583 0.005127 0.086402
v 0.357676 0.005127 0.009405
v -0.012657 0.745792 0.009405
v -0.012657 -0.735537 0.009405
vt 0.519693 0.407565
vt 0.543119 0.396978
vt 0.598354 0.705651
vt 0.565893 0.387662
vt 0.588667 0.378262
vt 0.611638 0.368800
vt 0.634607 0.359350
vt 0.657723 0.349870
vt 0.680429 0.340514
vt 0.703199 0.331285
vt 0.726503 0.321793
vt 0.749688 0.312382
vt 0.773054 0.302902
vt 0.796339 0.293513
vt 0.819730 0.284132
vt 0.844152 0.274254
vt 0.185004 0.542050
vt 0.207005 0.533158
vt 0.227800 0.525358
vt 0.250054 0.515603
vt 0.271685 0.506818
vt 0.293537 0.497952
vt 0.315186 0.489129
vt 0.336310 0.480511
vt 0.357220 0.471976
vt 0.379218 0.462949
vt 0.401170 0.453906
vt 0.423120 0.444872
vt 0.445121 0.435840
vt 0.467276 0.426769
vt 0.493707 0.416774
vt 0.394755 0.142337
vt 0.494377 0.418075
vt 0.062400 0.279567
vt 0.159955 0.552353
vt 0.941120 0.552068
vt 0.561314 0.691094
vt 0.536619 0.693218
vt 0.512654 0.696996
vt 0.489417 0.702662
vt 0.466699 0.709810
vt 0.444184 0.717652
vt 0.423336 0.725590
vt 0.403171 0.734414
vt 0.381296 0.744714
vt 0.360066 0.755529
vt 0.339531 0.767757
vt 0.321431 0.785138
vt 0.300679 0.797608
vt 0.282567 0.814832
vt 0.467186 0.427809
vt 0.089040 0.278614
vt 0.110547 0.268464
vt 0.137338 0.272945
vt 0.160468 0.267446
vt 0.183142 0.260454
vt 0.205754 0.252634
vt 0.226776 0.244630
vt 0.247651 0.235514
vt 0.269050 0.225344
vt 0.290098 0.214470
vt 0.310457 0.202199
vt 0.329959 0.188145
vt 0.348952 0.172387
vt 0.362546 0.138930
vt 0.443001 0.436707
vt 0.421484 0.445511
vt 0.399965 0.454334
vt 0.378324 0.463234
vt 0.356546 0.472199
vt 0.334657 0.481173
vt 0.313802 0.489710
vt 0.292642 0.498373
vt 0.270875 0.507226
vt 0.248843 0.516159
vt 0.226898 0.525063
vt 0.205548 0.534452
vt 0.182717 0.543062
vt 0.420753 0.138271
vt 0.447735 0.133996
vt 0.472850 0.128720
vt 0.497327 0.122655
vt 0.521264 0.115304
vt 0.545044 0.107138
vt 0.567923 0.098233
vt 0.590497 0.088559
vt 0.613195 0.077738
vt 0.635442 0.066208
vt 0.657149 0.053401
vt 0.678729 0.039593
vt 0.701053 0.023719
vt 0.721624 0.006729
vt 0.818631 0.284526
vt 0.913563 0.554492
vt 0.889645 0.557335
vt 0.865140 0.562141
vt 0.840519 0.568125
vt 0.816596 0.575337
vt 0.792748 0.583472
vt 0.769817 0.592241
vt 0.747333 0.602032
vt 0.724616 0.612931
vt 0.702457 0.624546
vt 0.680690 0.637522
vt 0.659817 0.651264
vt 0.640780 0.665985
vt 0.619331 0.683297
vt 0.794891 0.294077
vt 0.772110 0.303384
vt 0.749247 0.312636
vt 0.726199 0.321979
vt 0.703216 0.331311
vt 0.680039 0.340750
vt 0.657311 0.349962
vt 0.634563 0.359337
vt 0.611320 0.368866
vt 0.588150 0.378399
vt 0.564856 0.387988
vt 0.541686 0.397587
vt 0.518423 0.407274
vn 0.874882 0.447214 -0.185960
vn 0.817100 0.447214 -0.363796
vn 0.000003 1.000000 0.000001
vn 0.723607 0.447214 -0.525731
vn 0.598488 0.447214 -0.664689
vn 0.447214 0.447214 -0.774597
vn 0.276394 0.447214 -0.850651
vn 0.093493 0.447214 -0.889527
vn -0.093493 0.447214 -0.889527
vn -0.276393 0.447214 -0.850651
vn -0.447213 0.447214 -0.774597
vn -0.598488 0.447214 -0.664689
vn -0.723607 0.447214 -0.525731
vn -0.817100 0.447214 -0.363796
vn -0.874882 0.447214 -0.185961
vn -0.894427 0.447214 0.000001
vn -0.874882 0.447214 0.185962
vn -0.817100 0.447214 0.363796
vn -0.723607 0.447214 0.525731
vn -0.598488 0.447214 0.664689
vn -0.447214 0.447214 0.774597
vn -0.276394 0.447214 0.850651
vn -0.093493 0.447214 0.889527
vn 0.093494 0.447214 0.889527
vn 0.276393 0.447214 0.850651
vn 0.447213 0.447214 0.774597
vn 0.598488 0.447214 0.664689
vn 0.723607 0.447214 0.525731
vn 0.817100 0.447214 0.363796
vn 0.874882 0.447214 0.185962
vn 0.894427 0.447214 0.000002
vn 0.874882 -0.447214 -0.185960
vn 0.000003 -1.000000 0.000001
vn 0.817100 -0.447214 -0.363796
vn 0.723607 -0.447214 -0.525731
vn 0.598488 -0.447214 -0.664689
vn 0.447214 -0.447214 -0.774597
vn 0.276394 -0.447214 -0.850651
vn 0.093493 -0.447214 -0.889527
vn -0.093493 -0.447214 -0.889527
vn -0.276393 -0.447214 -0.850651
vn -0.447213 -0.447214 -0.774597
vn -0.598488 -0.447214 -0.664689
vn -0.723607 -0.447214 -0.525731
vn -0.817100 -0.447214 -0.363796
vn -0.874882 -0.447214 -0.185961
vn -0.894427 -0.447214 0.000001
vn -0.874882 -0.447214 0.185962
vn -0.817100 -0.447214 0.363796
vn -0.723607 -0.447214 0.525731
vn -0.598488 -0.447214 0.664689
vn -0.447214 -0.447214 0.774597
vn -0.276394 -0.447214 0.850651
vn -0.093493 -0.447214 0.889527
vn 0.093494 -0.447214 0.889527
vn 0.276393 -0.447214 0.850651
vn 0.447213 -0.447214 0.774597
vn 0.598488 -0.447214 0.664689
vn 0.723607 -0.447214 0.525732
vn 0.817100 -0.447214 0.363796
vn 0.874882 -0.447214 0.185962
vn 0.894427 -0.447214 0.000002
s 1
g pCone3
usemtl lambert2SG
f 1/120/1 2/2/2 31/106/3
f 2/119/2 3/4/4 31/105/3
f 3/118/4 4/5/5 31/104/3
f 4/117/5 5/6/6 31/103/3
f 5/116/6 6/7/7 31/102/3
f 6/115/7 7/8/8 31/101/3
f 7/114/8 8/9/9 31/100/3
f 8/113/9 9/10/10 31/99/3
f 9/112/10 10/11/11 31/98/3
f 10/111/11 11/12/12 31/97/3
f 11/110/12 12/13/13 31/96/3
f 12/109/13 13/14/14 31/95/3
f 13/108/14 14/15/15 31/94/3
f 14/93/15 15/16/16 31/36/3
f 15/35/16 16/17/17 31/50/3
f 16/78/17 17/18/18 31/49/3
f 17/77/18 18/19/19 31/48/3
f 18/76/19 19/20/20 31/47/3
f 19/75/20 20/21/21 31/46/3
f 20/74/21 21/22/22 31/45/3
f 21/73/22 22/23/23 31/44/3
f 22/72/23 23/24/24 31/43/3
f 23/71/24 24/25/25 31/42/3
f 24/70/25 25/26/26 31/41/3
f 25/69/26 26/27/27 31/40/3
f 26/68/27 27/28/28 31/39/3
f 27/67/28 28/29/29 31/38/3
f 28/66/29 29/30/30 31/37/3
f 29/51/30 30/31/31 31/3/3
f 30/33/31 1/1/1 31/107/3
s 2
f 1/120/32 32/79/33 2/2/34
f 2/119/34 32/80/33 3/4/35
f 3/118/35 32/81/33 4/5/36
f 4/117/36 32/82/33 5/6/37
f 5/116/37 32/83/33 6/7/38
f 6/115/38 32/84/33 7/8/39
f 7/114/39 32/85/33 8/9/40
f 8/113/40 32/86/33 9/10/41
f 9/112/41 32/87/33 10/11/42
f 10/111/42 32/88/33 11/12/43
f 11/110/43 32/89/33 12/13/44
f 12/109/44 32/90/33 13/14/45
f 13/108/45 32/91/33 14/15/46
f 14/93/46 32/92/33 15/16/47
f 15/35/47 32/34/33 16/17/48
f 16/78/48 32/52/33 17/18/49
f 17/77/49 32/53/33 18/19/50
f 18/76/50 32/54/33 19/20/51
f 19/75/51 32/55/33 20/21/52
f 20/74/52 32/56/33 21/22/53
f 21/73/53 32/57/33 22/23/54
f 22/72/54 32/58/33 23/24/55
f 23/71/55 32/59/33 24/25/56
f 24/70/56 32/60/33 25/26/57
f 25/69/57 32/61/33 26/27/58
f 26/68/58 32/62/33 27/28/59
f 27/67/59 32/63/33 28/29/60
f 28/66/60 32/64/33 29/30/61
f 29/51/61 32/65/33 30/31/62
f 30/33/62 32/32/33 1/1/32
