# This file uses centimeters as units for non-parametric coordinates.

mtllib Old_Shelter.mtl
g softMod1Set softMod2Set softMod4Set softMod5Set tweakSet1
v -2.058898 -0.040719 2.048837
v 1.986193 -0.040719 2.048837
v -2.058898 -0.040719 -5.000196
v 1.986193 -0.040719 -5.000196
g softMod2Set softMod4Set softMod5Set
v 0.400449 2.172515 2.048521
v 1.108814 1.990272 2.048565
v 1.108814 1.990272 -5.000468
v 0.400449 2.279131 -5.000512
v 1.695119 1.411383 2.048648
v 1.987475 0.711308 2.048744
v 1.987475 0.711308 -5.000290
v 1.695119 1.411383 -5.000385
v -2.057616 0.711308 2.048744
v -1.762643 1.411383 2.048648
v -1.875979 1.411383 -5.000385
v -2.170952 0.711308 -5.000290
v -1.174056 1.990272 2.048565
v -0.464485 2.279131 2.048521
v -0.464485 2.279131 -5.000512
v -1.174056 1.990272 -5.000468
v -0.481858 2.367240 -5.000495
v -0.481858 2.367240 2.048538
v 0.417342 2.288635 2.048538
v 0.417342 2.367240 -5.000495
v 2.075366 -0.038731 -5.000169
v 2.075366 -0.038731 2.048864
v 2.073258 0.730631 -5.000264
v 2.073258 0.764599 2.048769
v -2.148810 -0.038731 -5.000169
v -2.148810 -0.038731 2.048864
v -2.144102 0.730631 2.048769
v -2.144102 0.730631 -4.913617
v 1.157342 2.029673 -5.000449
v 1.157342 2.065357 2.048584
v 1.767837 1.462325 2.048670
v 1.767837 1.462325 -5.000363
v -1.900007 1.462325 -5.000363
v -1.835968 1.462325 2.048670
v -1.223111 2.065357 2.048584
v -1.152564 2.065357 -5.000449
g default
v -2.058898 -0.040719 -0.671836
v -2.148810 -0.038731 -0.671809
v -2.144102 0.730631 -0.671904
v -1.860685 1.462325 -0.672003
v -1.195882 2.065357 -0.672089
v -0.481858 2.367240 -0.672135
v 0.417342 2.367240 -0.672135
v 1.157342 1.921017 -0.672089
v 1.767837 1.501661 -0.672003
v 2.073258 0.730631 -0.671904
v 2.075366 -0.038731 -0.671809
v 1.986193 -0.040719 -0.671836
v -2.058898 -0.040719 -3.777448
v -2.148810 -0.038731 -3.777421
v -2.144102 0.730631 -3.690868
v -1.888899 1.462325 -3.777614
v -1.164801 2.065357 -3.777701
v -0.481858 2.367240 -3.777747
v 0.417342 2.367240 -3.777747
v 1.157342 2.035863 -3.777701
v 1.697473 1.462325 -3.777614
v 2.004382 0.730631 -3.777516
v 2.075366 -0.038731 -3.777421
v 1.986193 -0.040719 -3.777448
v 1.986193 -0.040719 0.618927
v 2.075366 -0.038731 0.618954
v 2.073258 0.764599 0.618859
v 1.767837 1.501661 0.618760
v 1.157342 1.927552 0.618674
v 0.417342 2.395251 0.618628
v -0.481858 2.302467 0.618628
v -1.208801 2.063082 0.618674
v -1.780421 1.524824 0.618760
v -2.075564 0.730631 0.618859
v -2.148810 -0.038731 0.618954
v -2.058898 -0.040719 0.618927
v 1.986193 -0.040719 -1.984791
v 2.075366 -0.038731 -1.984764
v 2.004382 0.730631 -1.984859
v 1.697473 1.462325 -1.984958
v 1.157342 2.044938 -1.985044
v 0.417342 2.367240 -1.985090
v -0.481858 2.367240 -1.985090
v -1.182742 2.161199 -1.985044
v -1.872613 1.558167 -1.984958
v -2.144102 0.730631 -1.984859
v -2.148810 -0.038731 -1.984764
v -2.058898 -0.040719 -1.984791
vt -0.000417 0.007517
vt 0.999583 0.007517
vt 0.999583 0.117722
vt -0.000417 0.117722
vt -0.000417 0.222790
vt 0.999583 0.883706
vt -0.000417 0.883707
vt 0.999583 0.222790
vt 0.999583 0.309565
vt -0.000417 0.309565
vt -0.000417 0.993912
vt 0.999583 0.993911
vt -0.000417 0.414633
vt 0.999583 0.655921
vt 0.999583 0.778638
vt 0.999583 0.414633
vt 0.999583 0.542196
vt -0.000417 0.542197
vt -0.000417 0.778639
vt -0.000417 0.655921
vt 0.385547 0.993912
vt 0.385547 0.883707
vt 0.385547 0.778639
vt 0.385547 0.655921
vt 0.385547 0.542196
vt 0.385547 0.414633
vt 0.385547 0.309565
vt 0.385547 0.222790
vt 0.385547 0.117722
vt 0.385547 0.007517
vt 0.826120 0.993911
vt 0.826120 0.883706
vt 0.826119 0.778638
vt 0.826119 0.655921
vt 0.826119 0.542196
vt 0.826119 0.414633
vt 0.826119 0.309565
vt 0.826119 0.222790
vt 0.826119 0.117722
vt 0.826119 0.007517
vt 0.202435 0.007517
vt 0.202435 0.117722
vt 0.202435 0.222790
vt 0.202435 0.309565
vt 0.202435 0.414633
vt 0.202435 0.542197
vt 0.202435 0.655921
vt 0.202435 0.778639
vt 0.202435 0.883707
vt 0.202435 0.993912
vt 0.571807 0.007517
vt 0.571807 0.117722
vt 0.571807 0.222790
vt 0.571807 0.309565
vt 0.571807 0.414633
vt 0.571807 0.542196
vt 0.571807 0.655921
vt 0.571807 0.778638
vt 0.571807 0.883706
vt 0.571808 0.993911
vn -0.188125 0.982145 -0.000941
vn -0.169974 0.985419 -0.007687
vn 0.197320 0.980338 -0.001120
vn 0.199925 0.979811 -0.001120
vn 0.997200 0.073907 0.011388
vn 0.998478 0.047433 0.028122
vn 0.974381 0.221133 0.041005
vn 0.971609 0.236000 0.016727
vn -0.999981 0.006120 0.000000
vn -0.999981 0.006120 0.000000
vn -0.985569 0.169276 -0.000531
vn -0.985889 0.167386 0.002184
vn 0.567827 0.823107 0.008269
vn 0.573247 0.819380 0.002104
vn 0.833899 0.551738 0.014061
vn 0.830277 0.556160 0.036408
vn -0.802948 0.596046 0.001815
vn -0.820068 0.572119 -0.012991
vn -0.535164 0.844471 -0.021626
vn -0.538563 0.842585 -0.001073
vn 0.000050 -0.000171 1.000000
vn -0.000064 -0.000163 1.000000
vn -0.000051 -0.000165 1.000000
vn 0.000040 -0.000171 1.000000
vn 0.000071 0.000204 -1.000000
vn -0.000075 0.000213 -1.000000
vn -0.000053 0.000210 -1.000000
vn 0.000051 0.000203 -1.000000
vn 0.022288 -0.999752 -0.000000
vn 0.022287 -0.999752 -0.000000
vn 0.022287 -0.999752 -0.000000
vn 0.022288 -0.999752 -0.000000
vn 0.000318 -0.000124 -1.000000
vn 0.000311 -0.000074 -1.000000
vn 0.000308 -0.000056 -1.000000
vn 0.000318 -0.000124 -1.000000
vn -0.000329 0.000087 1.000000
vn -0.000340 0.000121 1.000000
vn -0.000340 0.000121 1.000000
vn -0.000313 0.000037 1.000000
vn -0.022104 -0.999756 -0.000000
vn -0.022105 -0.999756 -0.000000
vn -0.022105 -0.999756 -0.000000
vn -0.022104 -0.999756 -0.000000
vn 0.000312 0.000123 1.000000
vn 0.000306 0.000074 1.000000
vn 0.000304 0.000056 1.000000
vn 0.000312 0.000123 1.000000
vn -0.863838 0.080138 -0.497354
vn -0.811277 -0.024044 -0.584168
vn -0.811277 -0.024044 -0.584168
vn -0.904982 0.214026 -0.367696
vn -0.000183 -0.000122 1.000000
vn -0.000279 -0.000031 1.000000
vn -0.000258 -0.000064 1.000000
vn -0.000150 -0.000137 1.000000
vn 0.000285 0.000034 -1.000000
vn 0.000209 0.000155 -1.000000
vn 0.000196 0.000168 -1.000000
vn 0.000269 0.000073 -1.000000
vn 0.000275 -0.000032 1.000000
vn 0.000199 -0.000124 1.000000
vn 0.000168 -0.000146 1.000000
vn 0.000255 -0.000065 1.000000
vn -0.000320 0.000295 -1.000000
vn -0.773202 0.278997 -0.569491
vn -0.137237 0.049682 -0.989292
vn -0.000189 0.000241 -1.000000
vn -0.022103 -0.999756 0.000000
vn -0.022103 -0.999756 0.000000
vn -0.022103 -0.999756 0.000000
vn -0.022103 -0.999756 0.000000
vn -0.976702 0.214586 0.002326
vn -0.998719 0.050597 -0.000001
vn -0.998433 0.050579 -0.023928
vn -0.976004 0.215866 -0.028597
vn -0.841468 0.539977 -0.018858
vn -0.815995 0.578057 0.001513
vn -0.534201 0.845356 -0.001422
vn -0.536508 0.843800 -0.012695
vn -0.164415 0.986387 -0.002900
vn -0.184017 0.982900 0.006714
vn 0.215662 0.976464 0.002740
vn 0.211360 0.977405 0.002517
vn 0.523338 0.851953 -0.017153
vn 0.548900 0.835779 -0.013500
vn 0.792721 0.609532 -0.007970
vn 0.809206 0.587437 -0.010175
vn 0.980156 0.198207 0.002708
vn 0.979483 0.201526 0.000126
vn 0.999997 0.002624 0.000000
vn 0.999997 0.002650 -0.000017
vn 0.022286 -0.999752 0.000000
vn 0.022286 -0.999752 0.000000
vn 0.022286 -0.999752 0.000000
vn 0.022286 -0.999752 0.000000
vn -0.022105 -0.999756 0.000000
vn -0.022104 -0.999756 0.000000
vn -0.022104 -0.999756 0.000000
vn -0.022105 -0.999756 0.000000
vn -0.984699 0.174246 0.002423
vn -0.999981 0.006120 0.000000
vn -0.999516 0.028189 0.013155
vn -0.980823 0.193604 0.022423
vn -0.840050 0.541649 0.030539
vn -0.802852 0.596176 0.001366
vn -0.512046 0.858956 -0.001686
vn -0.536667 0.843279 0.029488
vn -0.171713 0.985007 0.016602
vn -0.156986 0.987601 -0.000638
vn 0.209441 0.977787 0.008162
vn 0.237820 0.971246 0.011126
vn 0.558551 0.829432 0.007935
vn 0.563138 0.826297 0.010417
vn 0.832300 0.554201 -0.011728
vn 0.802022 0.597119 -0.014454
vn 0.979024 0.202563 -0.021928
vn 0.971988 0.234363 -0.017699
vn 0.999601 0.025025 -0.013095
vn 0.997261 0.073137 -0.011059
vn 0.022287 -0.999752 0.000000
vn 0.022288 -0.999752 0.000000
vn 0.022288 -0.999752 0.000000
vn 0.022287 -0.999752 0.000000
s 1
g pCube1
usemtl phongE1SG
f 21/17/1 58/35/2 59/36/3 24/16/4
f 63/40/5 25/2/6 27/3/7 62/39/8
f 29/12/9 54/31/10 55/32/11 32/6/12
f 33/9/13 60/37/14 61/38/15 36/8/16
f 59/36/3 60/37/14 33/9/13 24/16/4
f 61/38/15 62/39/8 27/3/7 36/8/16
f 37/15/17 56/33/18 57/34/19 40/14/20
f 55/32/11 56/33/18 37/15/17 32/6/12
f 57/34/19 58/35/2 21/17/1 40/14/20
s 4
usemtl lambert2SG
f 18//21 5//22 23//23 22//24
s 5
f 8//25 19//26 21//27 24//28
s 6
usemtl phongE1SG
f 64//29 4//30 25//31 63//32
s 5
usemtl lambert2SG
f 4//33 11//34 27//35 25//36
s 4
f 10//37 2//38 26//39 28//40
s 9
usemtl phongE1SG
f 3//41 53//42 54//43 29//44
s 4
usemtl lambert2SG
f 1//45 13//46 31//47 30//48
s 5
f 16//49 3//50 29//51 32//52
s 4
f 6//53 9//54 35//55 34//56
s 5
f 12//57 7//58 33//59 36//60
s 4
f 5//22 6//53 34//56 23//23
s 5
f 7//58 8//25 24//28 33//59
s 4
f 9//54 10//37 28//40 35//55
s 5
f 11//34 12//57 36//60 27//35
s 4
f 14//61 17//62 39//63 38//64
s 5
f 20//65 15//66 37//67 40//68
s 4
f 13//46 14//61 38//64 31//47
s 5
f 15//66 16//49 32//52 37//67
s 4
f 17//62 18//21 22//24 39//63
s 5
f 19//26 20//65 40//68 21//27
s 9
usemtl phongE1SG
f 76//69 1//70 30//71 75//72
s 1
f 74/49/73 75/50/74 30/11/75 31/7/76
f 31/7/76 38/19/77 73/48/78 74/49/73
f 72/47/79 73/48/78 38/19/77 39/20/80
f 39/20/80 22/18/81 71/46/82 72/47/79
f 70/45/83 71/46/82 22/18/81 23/13/84
f 23/13/84 34/10/85 69/44/86 70/45/83
f 68/43/87 69/44/86 34/10/85 35/5/88
f 35/5/88 28/4/89 67/42/90 68/43/87
f 26/1/91 66/41/92 67/42/90 28/4/89
s 6
f 2//93 65//94 66//95 26//96
s 9
f 88//97 41//98 42//99 87//100
s 1
f 86/59/101 87/60/102 42/21/103 43/22/104
f 43/22/104 44/23/105 85/58/106 86/59/101
f 84/57/107 85/58/106 44/23/105 45/24/108
f 45/24/108 46/25/109 83/56/110 84/57/107
f 82/55/111 83/56/110 46/25/109 47/26/112
f 47/26/112 48/27/113 81/54/114 82/55/111
f 80/53/115 81/54/114 48/27/113 49/28/116
f 49/28/116 50/29/117 79/52/118 80/53/115
f 51/30/119 78/51/120 79/52/118 50/29/117
s 6
f 52//121 77//122 78//123 51//124
f 65//94 52//121 51//124 66//95
s 1
f 67/42/90 66/41/92 51/30/119 50/29/117
f 68/43/87 67/42/90 50/29/117 49/28/116
f 49/28/116 48/27/113 69/44/86 68/43/87
f 70/45/83 69/44/86 48/27/113 47/26/112
f 47/26/112 46/25/109 71/46/82 70/45/83
f 72/47/79 71/46/82 46/25/109 45/24/108
f 45/24/108 44/23/105 73/48/78 72/47/79
f 74/49/73 73/48/78 44/23/105 43/22/104
f 43/22/104 42/21/103 75/50/74 74/49/73
s 9
f 41//98 76//69 75//72 42//99
s 6
f 77//122 64//29 63//32 78//123
s 1
f 79/52/118 78/51/120 63/40/5 62/39/8
f 80/53/115 79/52/118 62/39/8 61/38/15
f 61/38/15 60/37/14 81/54/114 80/53/115
f 82/55/111 81/54/114 60/37/14 59/36/3
f 59/36/3 58/35/2 83/56/110 82/55/111
f 84/57/107 83/56/110 58/35/2 57/34/19
f 57/34/19 56/33/18 85/58/106 84/57/107
f 86/59/101 85/58/106 56/33/18 55/32/11
f 55/32/11 54/31/10 87/60/102 86/59/101
s 9
f 53//42 88//97 87//100 54//43
