# This file uses centimeters as units for non-parametric coordinates.

mtllib plane.mtl
g default
v -16.260074 -0.610352 14.367531
v -12.273266 -0.493403 14.534575
v -8.135161 -0.610352 14.367531
v -4.072705 -0.610352 14.367531
v -0.010248 -0.610352 14.367531
v 4.373312 0.025706 14.591530
v 8.114665 0.312174 14.367531
v 12.729699 1.031360 14.725538
v 16.239577 -0.610352 14.367531
v -17.701023 0.240489 11.288129
v -13.430404 1.913508 10.441201
v -8.349846 0.808850 11.149201
v -4.061245 0.260307 10.961677
v 0.115444 -0.266074 10.935383
v 4.480341 -0.102653 10.504028
v 8.114665 0.323131 10.978281
v 12.555776 1.224889 10.476203
v 17.053770 0.983928 10.526500
v -17.403525 0.272420 7.154545
v -12.196442 0.202999 7.370690
v -7.866690 0.066837 7.204313
v -4.072705 -0.610352 7.589028
v -0.010248 -0.610352 7.589028
v 4.052208 -0.610352 7.589028
v 6.660048 -0.176832 7.457084
v 11.286617 0.749803 6.773717
v 16.315276 0.161135 6.760287
v -16.527548 0.952039 3.957557
v -11.053590 -0.121345 4.039221
v -8.135161 -0.610352 4.199776
v -4.072705 -0.610352 4.199776
v -0.010248 -0.610352 4.199776
v 3.734674 -0.500691 4.151704
v 7.480597 -0.320615 3.892959
v 11.065326 -0.200357 3.305158
v 16.239577 0.350113 4.199776
v -16.145233 0.940534 0.856154
v -13.465856 -0.043736 0.750851
v -8.135161 -0.610352 0.810525
v -4.072705 -0.610352 0.810525
v -0.010248 -0.610352 0.810525
v 3.943022 -0.562948 0.781561
v 7.755237 -0.418505 0.567243
v 11.843425 -0.155005 0.558928
v 15.675481 0.915138 0.486073
v -15.820864 1.659544 -2.567665
v -12.201902 -0.484428 -2.578865
v -8.135161 -0.610352 -2.578726
v -4.072705 -0.610352 -2.578726
v -0.010248 -0.610352 -2.578726
v 4.052208 -0.610352 -2.578726
v 7.976356 -0.402867 -2.683344
v 11.907953 0.584811 -2.695622
v 16.239577 0.350116 -2.578726
v -16.246602 0.945230 -5.924192
v -12.063587 0.447783 -5.806576
v -8.135161 -0.610352 -5.967978
v -4.072705 -0.610352 -5.967978
v -0.010248 -0.610352 -5.967978
v 4.052208 -0.610352 -5.967978
v 8.163703 -0.580119 -6.014944
v 12.103263 0.959581 -5.958701
v 16.247463 0.731999 -5.967978
v -16.260074 0.350111 -9.357230
v -11.526741 1.030724 -8.737498
v -8.135161 -0.610352 -9.357230
v -4.072705 -0.610352 -9.357230
v 1.532574 -0.289285 -9.244694
v 5.125920 -0.380829 -8.686202
v 8.114665 -0.610352 -9.357230
v 11.123847 0.009721 -9.426631
v 16.239577 0.350116 -9.357230
v -16.260074 0.318609 -12.746482
v -12.451820 1.553939 -12.779348
v -8.024394 2.049184 -12.625464
v -3.989249 0.436145 -13.879762
v 0.253356 0.012830 -12.897829
v 4.052208 0.236406 -12.746482
v 7.956153 0.346809 -12.857058
v 11.623422 0.320682 -13.167989
v 16.239577 -0.141176 -12.746482
v -16.260074 -0.610352 -16.135733
v -12.320241 0.891978 -16.283993
v -8.135161 0.336842 -16.135733
v -4.072705 -0.337693 -16.135733
v -0.058649 0.952160 -16.120437
v 4.052208 0.348779 -16.135733
v 8.114665 -0.076491 -16.135733
v 12.018405 0.693958 -16.327619
v 16.112559 -0.417345 -16.224340
vt 0.375000 0.250000
vt 0.406250 0.250000
vt 0.375000 0.277778
vt 0.406250 0.277778
vt 0.437500 0.250000
vt 0.437500 0.277778
vt 0.468750 0.250000
vt 0.468750 0.277778
vt 0.500000 0.250000
vt 0.500000 0.277778
vt 0.531250 0.250000
vt 0.531250 0.277778
vt 0.562500 0.250000
vt 0.562500 0.277778
vt 0.593750 0.250000
vt 0.593750 0.277778
vt 0.625000 0.250000
vt 0.625000 0.277778
vt 0.375000 0.305556
vt 0.406250 0.305556
vt 0.437500 0.305556
vt 0.468750 0.305556
vt 0.500000 0.305556
vt 0.531250 0.305556
vt 0.562500 0.305556
vt 0.593750 0.305556
vt 0.625000 0.305556
vt 0.375000 0.333333
vt 0.406250 0.333333
vt 0.437500 0.333333
vt 0.468750 0.333333
vt 0.500000 0.333333
vt 0.531250 0.333333
vt 0.562500 0.333333
vt 0.593750 0.333333
vt 0.625000 0.333333
vt 0.406250 0.361111
vt 0.375000 0.361111
vt 0.437500 0.361111
vt 0.468750 0.361111
vt 0.500000 0.361111
vt 0.531250 0.361111
vt 0.562500 0.361111
vt 0.593750 0.361111
vt 0.625000 0.361111
vt 0.375000 0.388889
vt 0.406250 0.388889
vt 0.437500 0.388889
vt 0.468750 0.388889
vt 0.500000 0.388889
vt 0.531250 0.388889
vt 0.562500 0.388889
vt 0.593750 0.388889
vt 0.625000 0.388889
vt 0.375000 0.416667
vt 0.406250 0.416667
vt 0.437500 0.416667
vt 0.468750 0.416667
vt 0.500000 0.416667
vt 0.531250 0.416667
vt 0.562500 0.416667
vt 0.593750 0.416667
vt 0.625000 0.416667
vt 0.406250 0.444445
vt 0.375000 0.444445
vt 0.437500 0.444445
vt 0.468750 0.444445
vt 0.500000 0.444445
vt 0.531250 0.444445
vt 0.562500 0.444445
vt 0.593750 0.444445
vt 0.625000 0.444445
vt 0.406250 0.472222
vt 0.375000 0.472222
vt 0.437500 0.472222
vt 0.468750 0.472222
vt 0.500000 0.472222
vt 0.531250 0.472222
vt 0.562500 0.472222
vt 0.593750 0.472222
vt 0.625000 0.472222
vt 0.406250 0.500000
vt 0.375000 0.500000
vt 0.437500 0.500000
vt 0.468750 0.500000
vt 0.500000 0.500000
vt 0.531250 0.500000
vt 0.562500 0.500000
vt 0.593750 0.500000
vt 0.625000 0.500000
vn -0.039983 0.958154 0.283448
vn 0.003274 0.975084 0.221812
vn 0.034219 0.994317 0.100809
vn 0.034219 0.994317 0.100809
vn 0.003274 0.975084 0.221812
vn 0.007926 0.997216 0.074146
vn 0.017673 0.971139 0.237858
vn -0.012322 0.994207 0.106769
vn 0.003274 0.975084 0.221812
vn 0.003274 0.975084 0.221812
vn -0.012322 0.994207 0.106769
vn 0.007926 0.997216 0.074146
vn 0.017673 0.971139 0.237858
vn -0.000856 0.969672 0.244408
vn -0.012322 0.994207 0.106769
vn -0.012322 0.994207 0.106769
vn -0.000856 0.969672 0.244408
vn 0.055991 0.998345 0.013117
vn -0.000856 0.969672 0.244408
vn -0.044052 0.986663 0.156703
vn 0.055991 0.998345 0.013117
vn 0.055991 0.998345 0.013117
vn -0.044052 0.986663 0.156703
vn 0.020838 0.998615 -0.048313
vn -0.044052 0.986663 0.156703
vn -0.094625 0.995477 0.008464
vn 0.020838 0.998615 -0.048313
vn 0.020838 0.998615 -0.048313
vn -0.094625 0.995477 0.008464
vn -0.072812 0.994869 -0.070245
vn -0.094625 0.995477 0.008464
vn -0.122695 0.992397 -0.009648
vn -0.072812 0.994869 -0.070245
vn -0.072812 0.994869 -0.070245
vn -0.122695 0.992397 -0.009648
vn -0.157926 0.985203 -0.066589
vn -0.122695 0.992397 -0.009648
vn 0.087171 0.977240 0.193401
vn -0.157926 0.985203 -0.066589
vn -0.157926 0.985203 -0.066589
vn 0.087171 0.977240 0.193401
vn -0.064486 0.995425 -0.070503
vn 0.419024 0.803728 0.422422
vn 0.152263 0.988056 0.023685
vn 0.087171 0.977240 0.193401
vn 0.087171 0.977240 0.193401
vn 0.152263 0.988056 0.023685
vn -0.064486 0.995425 -0.070503
vn 0.034219 0.994317 0.100809
vn 0.007926 0.997216 0.074146
vn 0.014676 0.999638 0.022566
vn 0.014676 0.999638 0.022566
vn 0.007926 0.997216 0.074146
vn 0.026763 0.999449 -0.019654
vn 0.007926 0.997216 0.074146
vn -0.012322 0.994207 0.106769
vn 0.026763 0.999449 -0.019654
vn 0.026763 0.999449 -0.019654
vn -0.012322 0.994207 0.106769
vn 0.095700 0.986335 -0.134110
vn -0.012322 0.994207 0.106769
vn 0.055991 0.998345 0.013117
vn 0.095700 0.986335 -0.134110
vn 0.095700 0.986335 -0.134110
vn 0.055991 0.998345 0.013117
vn 0.081789 0.987911 -0.131693
vn 0.055991 0.998345 0.013117
vn 0.020838 0.998615 -0.048313
vn 0.081789 0.987911 -0.131693
vn 0.081789 0.987911 -0.131693
vn 0.020838 0.998615 -0.048313
vn -0.004108 0.998112 -0.061282
vn 0.020838 0.998615 -0.048313
vn -0.072812 0.994869 -0.070245
vn -0.004108 0.998112 -0.061282
vn -0.004108 0.998112 -0.061282
vn -0.072812 0.994869 -0.070245
vn -0.059987 0.996305 -0.061463
vn -0.157926 0.985203 -0.066589
vn -0.102314 0.991943 -0.074712
vn -0.072812 0.994869 -0.070245
vn -0.072812 0.994869 -0.070245
vn -0.102314 0.991943 -0.074712
vn -0.059987 0.996305 -0.061463
vn -0.064486 0.995425 -0.070503
vn -0.071660 0.988369 -0.134132
vn -0.157926 0.985203 -0.066589
vn -0.157926 0.985203 -0.066589
vn -0.071660 0.988369 -0.134132
vn -0.102314 0.991943 -0.074712
vn 0.152263 0.988056 0.023685
vn 0.001365 0.990730 -0.135841
vn -0.064486 0.995425 -0.070503
vn -0.064486 0.995425 -0.070503
vn 0.001365 0.990730 -0.135841
vn -0.071660 0.988369 -0.134132
vn 0.014676 0.999638 0.022566
vn 0.026763 0.999449 -0.019654
vn 0.075795 0.996584 -0.032795
vn 0.075795 0.996584 -0.032795
vn 0.026763 0.999449 -0.019654
vn 0.105371 0.991453 -0.076927
vn 0.026763 0.999449 -0.019654
vn 0.095700 0.986335 -0.134110
vn 0.105371 0.991453 -0.076927
vn 0.105371 0.991453 -0.076927
vn 0.095700 0.986335 -0.134110
vn 0.085293 0.994356 -0.063105
vn 0.095700 0.986335 -0.134110
vn 0.081789 0.987911 -0.131693
vn 0.085293 0.994356 -0.063105
vn 0.085293 0.994356 -0.063105
vn 0.081789 0.987911 -0.131693
vn 0.000000 1.000000 0.000000
vn 0.081789 0.987911 -0.131693
vn -0.004108 0.998112 -0.061282
vn 0.000000 1.000000 0.000000
vn 0.000000 1.000000 0.000000
vn -0.004108 0.998112 -0.061282
vn -0.011963 0.999909 0.006179
vn -0.004108 0.998112 -0.061282
vn -0.059987 0.996305 -0.061463
vn -0.011963 0.999909 0.006179
vn -0.011963 0.999909 0.006179
vn -0.059987 0.996305 -0.061463
vn -0.045751 0.998938 -0.005448
vn -0.059987 0.996305 -0.061463
vn -0.102314 0.991943 -0.074712
vn -0.045751 0.998938 -0.005448
vn -0.045751 0.998938 -0.005448
vn -0.102314 0.991943 -0.074712
vn -0.050508 0.997437 -0.050686
vn -0.102314 0.991943 -0.074712
vn -0.071660 0.988369 -0.134132
vn -0.050508 0.997437 -0.050686
vn -0.050508 0.997437 -0.050686
vn -0.071660 0.988369 -0.134132
vn -0.073455 0.996127 -0.048326
vn 0.001365 0.990730 -0.135841
vn -0.084393 0.996014 -0.028873
vn -0.071660 0.988369 -0.134132
vn -0.071660 0.988369 -0.134132
vn -0.084393 0.996014 -0.028873
vn -0.073455 0.996127 -0.048326
vn 0.105371 0.991453 -0.076927
vn 0.124413 0.991131 -0.046704
vn 0.075795 0.996584 -0.032795
vn 0.075795 0.996584 -0.032795
vn 0.124413 0.991131 -0.046704
vn 0.139503 0.990183 0.008721
vn 0.085293 0.994356 -0.063105
vn 0.056108 0.997976 -0.029940
vn 0.105371 0.991453 -0.076927
vn 0.105371 0.991453 -0.076927
vn 0.056108 0.997976 -0.029940
vn 0.124413 0.991131 -0.046704
vn 0.085293 0.994356 -0.063105
vn 0.000000 1.000000 0.000000
vn 0.056108 0.997976 -0.029940
vn 0.056108 0.997976 -0.029940
vn 0.000000 1.000000 0.000000
vn 0.000000 1.000000 0.000000
vn 0.000000 1.000000 0.000000
vn -0.011963 0.999909 0.006179
vn 0.000000 1.000000 0.000000
vn 0.000000 1.000000 0.000000
vn -0.011963 0.999909 0.006179
vn -0.007064 0.999969 -0.003464
vn -0.011963 0.999909 0.006179
vn -0.045751 0.998938 -0.005448
vn -0.007064 0.999969 -0.003464
vn -0.007064 0.999969 -0.003464
vn -0.045751 0.998938 -0.005448
vn -0.025145 0.999538 -0.017041
vn -0.045751 0.998938 -0.005448
vn -0.050508 0.997437 -0.050686
vn -0.025145 0.999538 -0.017041
vn -0.025145 0.999538 -0.017041
vn -0.050508 0.997437 -0.050686
vn -0.050615 0.998631 -0.013179
vn -0.050508 0.997437 -0.050686
vn -0.073455 0.996127 -0.048326
vn -0.050615 0.998631 -0.013179
vn -0.050615 0.998631 -0.013179
vn -0.073455 0.996127 -0.048326
vn -0.095587 0.995362 0.010844
vn -0.073455 0.996127 -0.048326
vn -0.084393 0.996014 -0.028873
vn -0.095587 0.995362 0.010844
vn -0.095587 0.995362 0.010844
vn -0.084393 0.996014 -0.028873
vn -0.116026 0.993147 0.014039
vn 0.139503 0.990183 0.008721
vn 0.124413 0.991131 -0.046704
vn 0.193759 0.980878 -0.018349
vn 0.193759 0.980878 -0.018349
vn 0.124413 0.991131 -0.046704
vn 0.121785 0.991811 -0.038475
vn 0.124413 0.991131 -0.046704
vn 0.056108 0.997976 -0.029940
vn 0.121785 0.991811 -0.038475
vn 0.121785 0.991811 -0.038475
vn 0.056108 0.997976 -0.029940
vn 0.013313 0.999889 -0.006706
vn 0.056108 0.997976 -0.029940
vn 0.000000 1.000000 0.000000
vn 0.013313 0.999889 -0.006706
vn 0.013313 0.999889 -0.006706
vn 0.000000 1.000000 0.000000
vn 0.000000 1.000000 0.000000
vn 0.000000 1.000000 0.000000
vn -0.007064 0.999969 -0.003464
vn 0.000000 1.000000 0.000000
vn 0.000000 1.000000 0.000000
vn -0.007064 0.999969 -0.003464
vn -0.000838 0.999996 -0.002510
vn -0.007064 0.999969 -0.003464
vn -0.025145 0.999538 -0.017041
vn -0.000838 0.999996 -0.002510
vn -0.000838 0.999996 -0.002510
vn -0.025145 0.999538 -0.017041
vn -0.024695 0.999685 -0.004514
vn -0.025145 0.999538 -0.017041
vn -0.050615 0.998631 -0.013179
vn -0.024695 0.999685 -0.004514
vn -0.024695 0.999685 -0.004514
vn -0.050615 0.998631 -0.013179
vn -0.068448 0.997562 -0.013620
vn -0.050615 0.998631 -0.013179
vn -0.095587 0.995362 0.010844
vn -0.068448 0.997562 -0.013620
vn -0.068448 0.997562 -0.013620
vn -0.095587 0.995362 0.010844
vn -0.118297 0.992062 0.042658
vn -0.095587 0.995362 0.010844
vn -0.116026 0.993147 0.014039
vn -0.118297 0.992062 0.042658
vn -0.118297 0.992062 0.042658
vn -0.116026 0.993147 0.014039
vn -0.073990 0.996621 0.035672
vn 0.193759 0.980878 -0.018349
vn 0.121785 0.991811 -0.038475
vn 0.187154 0.981149 0.048163
vn 0.187154 0.981149 0.048163
vn 0.121785 0.991811 -0.038475
vn 0.106628 0.991800 0.070450
vn 0.121785 0.991811 -0.038475
vn 0.013313 0.999889 -0.006706
vn 0.106628 0.991800 0.070450
vn 0.106628 0.991800 0.070450
vn 0.013313 0.999889 -0.006706
vn 0.015260 0.999438 0.029834
vn 0.013313 0.999889 -0.006706
vn 0.000000 1.000000 0.000000
vn 0.015260 0.999438 0.029834
vn 0.015260 0.999438 0.029834
vn 0.000000 1.000000 0.000000
vn 0.000000 1.000000 0.000000
vn 0.000000 1.000000 0.000000
vn -0.000838 0.999996 -0.002510
vn 0.000000 1.000000 0.000000
vn 0.000000 1.000000 0.000000
vn -0.000838 0.999996 -0.002510
vn -0.008782 0.999494 0.030555
vn -0.000838 0.999996 -0.002510
vn -0.024695 0.999685 -0.004514
vn -0.008782 0.999494 0.030555
vn -0.008782 0.999494 0.030555
vn -0.024695 0.999685 -0.004514
vn -0.006483 0.999504 0.030819
vn -0.024695 0.999685 -0.004514
vn -0.068448 0.997562 -0.013620
vn -0.006483 0.999504 0.030819
vn -0.006483 0.999504 0.030819
vn -0.068448 0.997562 -0.013620
vn -0.096827 0.995295 0.003379
vn -0.068448 0.997562 -0.013620
vn -0.118297 0.992062 0.042658
vn -0.096827 0.995295 0.003379
vn -0.096827 0.995295 0.003379
vn -0.118297 0.992062 0.042658
vn -0.101447 0.994746 0.013732
vn -0.118297 0.992062 0.042658
vn -0.073990 0.996621 0.035672
vn -0.101447 0.994746 0.013732
vn -0.101447 0.994746 0.013732
vn -0.073990 0.996621 0.035672
vn 0.013225 0.999913 0.000000
vn 0.106628 0.991800 0.070450
vn 0.127676 0.983482 0.128304
vn 0.187154 0.981149 0.048163
vn 0.187154 0.981149 0.048163
vn 0.127676 0.983482 0.128304
vn 0.074707 0.996224 0.044234
vn 0.106628 0.991800 0.070450
vn 0.015260 0.999438 0.029834
vn 0.127676 0.983482 0.128304
vn 0.127676 0.983482 0.128304
vn 0.015260 0.999438 0.029834
vn 0.067190 0.989274 0.129704
vn 0.015260 0.999438 0.029834
vn 0.000000 1.000000 0.000000
vn 0.067190 0.989274 0.129704
vn 0.067190 0.989274 0.129704
vn 0.000000 1.000000 0.000000
vn -0.016408 0.994507 0.103372
vn 0.000000 1.000000 0.000000
vn -0.008782 0.999494 0.030555
vn -0.016408 0.994507 0.103372
vn -0.016408 0.994507 0.103372
vn -0.008782 0.999494 0.030555
vn -0.034439 0.993848 0.105264
vn -0.008782 0.999494 0.030555
vn -0.006483 0.999504 0.030819
vn -0.034439 0.993848 0.105264
vn -0.034439 0.993848 0.105264
vn -0.006483 0.999504 0.030819
vn 0.045706 0.994864 0.090313
vn -0.006483 0.999504 0.030819
vn -0.096827 0.995295 0.003379
vn 0.045706 0.994864 0.090313
vn 0.045706 0.994864 0.090313
vn -0.096827 0.995295 0.003379
vn -0.045676 0.994379 0.095518
vn -0.101447 0.994746 0.013732
vn -0.125182 0.990490 0.057097
vn -0.096827 0.995295 0.003379
vn -0.096827 0.995295 0.003379
vn -0.125182 0.990490 0.057097
vn -0.045676 0.994379 0.095518
vn 0.013225 0.999913 0.000000
vn -0.026978 0.999342 -0.024258
vn -0.101447 0.994746 0.013732
vn -0.101447 0.994746 0.013732
vn -0.026978 0.999342 -0.024258
vn -0.125182 0.990490 0.057097
vn 0.127676 0.983482 0.128304
vn 0.008856 0.999240 0.037952
vn 0.074707 0.996224 0.044234
vn 0.074707 0.996224 0.044234
vn 0.008856 0.999240 0.037952
vn -0.067422 0.994833 -0.075908
vn 0.067190 0.989274 0.129704
vn 0.056934 0.994054 0.092812
vn 0.127676 0.983482 0.128304
vn 0.127676 0.983482 0.128304
vn 0.056934 0.994054 0.092812
vn 0.008856 0.999240 0.037952
vn 0.067190 0.989274 0.129704
vn -0.016408 0.994507 0.103372
vn 0.056934 0.994054 0.092812
vn 0.056934 0.994054 0.092812
vn -0.016408 0.994507 0.103372
vn 0.030652 0.998278 0.050020
vn -0.034439 0.993848 0.105264
vn -0.041486 0.993669 0.104411
vn -0.016408 0.994507 0.103372
vn -0.016408 0.994507 0.103372
vn -0.041486 0.993669 0.104411
vn 0.030652 0.998278 0.050020
vn 0.045706 0.994864 0.090313
vn -0.031627 0.992854 0.115064
vn -0.034439 0.993848 0.105264
vn -0.034439 0.993848 0.105264
vn -0.031627 0.992854 0.115064
vn -0.041486 0.993669 0.104411
vn 0.045706 0.994864 0.090313
vn -0.045676 0.994379 0.095518
vn -0.031627 0.992854 0.115064
vn -0.031627 0.992854 0.115064
vn -0.045676 0.994379 0.095518
vn -0.009920 0.997721 0.066735
vn -0.045676 0.994379 0.095518
vn -0.125182 0.990490 0.057097
vn -0.009920 0.997721 0.066735
vn -0.009920 0.997721 0.066735
vn -0.125182 0.990490 0.057097
vn 0.037206 0.998297 -0.044936
vn 0.111676 0.988135 -0.105439
vn 0.037206 0.998297 -0.044936
vn -0.026978 0.999342 -0.024258
vn -0.125182 0.990490 0.057097
vn -0.026978 0.999342 -0.024258
vn 0.037206 0.998297 -0.044936
vn 0.008856 0.999240 0.037952
vn -0.093766 0.989628 -0.108830
vn -0.067422 0.994833 -0.075908
vn -0.067422 0.994833 -0.075908
vn -0.093766 0.989628 -0.108830
vn -0.222305 0.940296 -0.257726
vn 0.008856 0.999240 0.037952
vn 0.056934 0.994054 0.092812
vn -0.093766 0.989628 -0.108830
vn -0.093766 0.989628 -0.108830
vn 0.056934 0.994054 0.092812
vn 0.054972 0.997976 -0.031963
vn 0.056934 0.994054 0.092812
vn 0.030652 0.998278 0.050020
vn 0.054972 0.997976 -0.031963
vn 0.054972 0.997976 -0.031963
vn 0.030652 0.998278 0.050020
vn 0.000262 0.987623 -0.156849
vn -0.041486 0.993669 0.104411
vn -0.042807 0.998095 0.044432
vn 0.030652 0.998278 0.050020
vn 0.030652 0.998278 0.050020
vn -0.042807 0.998095 0.044432
vn 0.000262 0.987623 -0.156849
vn -0.031627 0.992854 0.115064
vn 0.026552 0.999642 -0.003333
vn -0.041486 0.993669 0.104411
vn -0.041486 0.993669 0.104411
vn 0.026552 0.999642 -0.003333
vn -0.042807 0.998095 0.044432
vn -0.031627 0.992854 0.115064
vn -0.009920 0.997721 0.066735
vn 0.026552 0.999642 -0.003333
vn 0.026552 0.999642 -0.003333
vn -0.009920 0.997721 0.066735
vn 0.031589 0.993675 -0.107758
vn -0.009920 0.997721 0.066735
vn 0.037206 0.998297 -0.044936
vn 0.031589 0.993675 -0.107758
vn 0.031589 0.993675 -0.107758
vn 0.037206 0.998297 -0.044936
vn 0.048646 0.995776 -0.077872
vn 0.037206 0.998297 -0.044936
vn 0.111676 0.988135 -0.105439
vn 0.048646 0.995776 -0.077872
vn 0.048646 0.995776 -0.077872
vn 0.111676 0.988135 -0.105439
vn 0.120632 0.989225 -0.082958
s off
g ground_GEO_01 ALL_GEO_GRP_01
usemtl initialShadingGroup
f 1/1/1 2/2/2 10/3/3
f 10/3/4 2/2/5 11/4/6
f 3/5/7 12/6/8 2/2/9
f 2/2/10 12/6/11 11/4/12
f 3/5/13 4/7/14 12/6/15
f 12/6/16 4/7/17 13/8/18
f 4/7/19 5/9/20 13/8/21
f 13/8/22 5/9/23 14/10/24
f 5/9/25 6/11/26 14/10/27
f 14/10/28 6/11/29 15/12/30
f 6/11/31 7/13/32 15/12/33
f 15/12/34 7/13/35 16/14/36
f 7/13/37 8/15/38 16/14/39
f 16/14/40 8/15/41 17/16/42
f 9/17/43 18/18/44 8/15/45
f 8/15/46 18/18/47 17/16/48
f 10/3/49 11/4/50 19/19/51
f 19/19/52 11/4/53 20/20/54
f 11/4/55 12/6/56 20/20/57
f 20/20/58 12/6/59 21/21/60
f 12/6/61 13/8/62 21/21/63
f 21/21/64 13/8/65 22/22/66
f 13/8/67 14/10/68 22/22/69
f 22/22/70 14/10/71 23/23/72
f 14/10/73 15/12/74 23/23/75
f 23/23/76 15/12/77 24/24/78
f 16/14/79 25/25/80 15/12/81
f 15/12/82 25/25/83 24/24/84
f 17/16/85 26/26/86 16/14/87
f 16/14/88 26/26/89 25/25/90
f 18/18/91 27/27/92 17/16/93
f 17/16/94 27/27/95 26/26/96
f 19/19/97 20/20/98 28/28/99
f 28/28/100 20/20/101 29/29/102
f 20/20/103 21/21/104 29/29/105
f 29/29/106 21/21/107 30/30/108
f 21/21/109 22/22/110 30/30/111
f 30/30/112 22/22/113 31/31/114
f 22/22/115 23/23/116 31/31/117
f 31/31/118 23/23/119 32/32/120
f 23/23/121 24/24/122 32/32/123
f 32/32/124 24/24/125 33/33/126
f 24/24/127 25/25/128 33/33/129
f 33/33/130 25/25/131 34/34/132
f 25/25/133 26/26/134 34/34/135
f 34/34/136 26/26/137 35/35/138
f 27/27/139 36/36/140 26/26/141
f 26/26/142 36/36/143 35/35/144
f 29/29/145 38/37/146 28/28/147
f 28/28/148 38/37/149 37/38/150
f 30/30/151 39/39/152 29/29/153
f 29/29/154 39/39/155 38/37/156
f 30/30/157 31/31/158 39/39/159
f 39/39/160 31/31/161 40/40/162
f 31/31/163 32/32/164 40/40/165
f 40/40/166 32/32/167 41/41/168
f 32/32/169 33/33/170 41/41/171
f 41/41/172 33/33/173 42/42/174
f 33/33/175 34/34/176 42/42/177
f 42/42/178 34/34/179 43/43/180
f 34/34/181 35/35/182 43/43/183
f 43/43/184 35/35/185 44/44/186
f 35/35/187 36/36/188 44/44/189
f 44/44/190 36/36/191 45/45/192
f 37/38/193 38/37/194 46/46/195
f 46/46/196 38/37/197 47/47/198
f 38/37/199 39/39/200 47/47/201
f 47/47/202 39/39/203 48/48/204
f 39/39/205 40/40/206 48/48/207
f 48/48/208 40/40/209 49/49/210
f 40/40/211 41/41/212 49/49/213
f 49/49/214 41/41/215 50/50/216
f 41/41/217 42/42/218 50/50/219
f 50/50/220 42/42/221 51/51/222
f 42/42/223 43/43/224 51/51/225
f 51/51/226 43/43/227 52/52/228
f 43/43/229 44/44/230 52/52/231
f 52/52/232 44/44/233 53/53/234
f 44/44/235 45/45/236 53/53/237
f 53/53/238 45/45/239 54/54/240
f 46/46/241 47/47/242 55/55/243
f 55/55/244 47/47/245 56/56/246
f 47/47/247 48/48/248 56/56/249
f 56/56/250 48/48/251 57/57/252
f 48/48/253 49/49/254 57/57/255
f 57/57/256 49/49/257 58/58/258
f 49/49/259 50/50/260 58/58/261
f 58/58/262 50/50/263 59/59/264
f 50/50/265 51/51/266 59/59/267
f 59/59/268 51/51/269 60/60/270
f 51/51/271 52/52/272 60/60/273
f 60/60/274 52/52/275 61/61/276
f 52/52/277 53/53/278 61/61/279
f 61/61/280 53/53/281 62/62/282
f 53/53/283 54/54/284 62/62/285
f 62/62/286 54/54/287 63/63/288
f 56/56/289 65/64/290 55/55/291
f 55/55/292 65/64/293 64/65/294
f 56/56/295 57/57/296 65/64/297
f 65/64/298 57/57/299 66/66/300
f 57/57/301 58/58/302 66/66/303
f 66/66/304 58/58/305 67/67/306
f 58/58/307 59/59/308 67/67/309
f 67/67/310 59/59/311 68/68/312
f 59/59/313 60/60/314 68/68/315
f 68/68/316 60/60/317 69/69/318
f 60/60/319 61/61/320 69/69/321
f 69/69/322 61/61/323 70/70/324
f 62/62/325 71/71/326 61/61/327
f 61/61/328 71/71/329 70/70/330
f 63/63/331 72/72/332 62/62/333
f 62/62/334 72/72/335 71/71/336
f 65/64/337 74/73/338 64/65/339
f 64/65/340 74/73/341 73/74/342
f 66/66/343 75/75/344 65/64/345
f 65/64/346 75/75/347 74/73/348
f 66/66/349 67/67/350 75/75/351
f 75/75/352 67/67/353 76/76/354
f 68/68/355 77/77/356 67/67/357
f 67/67/358 77/77/359 76/76/360
f 69/69/361 78/78/362 68/68/363
f 68/68/364 78/78/365 77/77/366
f 69/69/367 70/70/368 78/78/369
f 78/78/370 70/70/371 79/79/372
f 70/70/373 71/71/374 79/79/375
f 79/79/376 71/71/377 80/80/378
f 81/81/379 80/80/380 72/72/381
f 71/71/382 72/72/383 80/80/384
f 74/73/385 83/82/386 73/74/387
f 73/74/388 83/82/389 82/83/390
f 74/73/391 75/75/392 83/82/393
f 83/82/394 75/75/395 84/84/396
f 75/75/397 76/76/398 84/84/399
f 84/84/400 76/76/401 85/85/402
f 77/77/403 86/86/404 76/76/405
f 76/76/406 86/86/407 85/85/408
f 78/78/409 87/87/410 77/77/411
f 77/77/412 87/87/413 86/86/414
f 78/78/415 79/79/416 87/87/417
f 87/87/418 79/79/419 88/88/420
f 79/79/421 80/80/422 88/88/423
f 88/88/424 80/80/425 89/89/426
f 80/80/427 81/81/428 89/89/429
f 89/89/430 81/81/431 90/90/432
