# This file uses centimeters as units for non-parametric coordinates.

mtllib plane.mtl
g default
v -9.540185 0.113416 11.049911
v -7.201027 0.345058 11.178382
v -4.773099 0.113416 11.049911
v -2.389556 0.113416 11.049911
v -0.006013 0.113416 11.049911
v 2.565930 1.373265 11.222186
v 4.761073 1.940675 11.049911
v 7.468827 3.365178 11.325250
v 9.528159 0.113416 11.049911
v -10.385625 1.798688 8.681576
v -7.848828 1.594697 7.970479
v -4.898611 1.715819 8.521813
v -2.382832 1.837942 8.430506
v 0.067734 0.795332 8.410283
v 2.628726 1.119023 8.078532
v 4.761073 1.962379 8.443275
v 7.366782 3.748504 8.057133
v 10.005866 3.271229 8.095816
v -10.211076 1.861934 5.502482
v -7.155952 1.724431 5.668717
v -4.615580 1.454733 5.540758
v -2.389556 0.113416 5.836638
v -0.006013 0.113416 5.836638
v 2.377530 0.113416 5.836638
v 3.907614 0.972095 5.735161
v 6.657386 1.602982 5.258053
v 9.572574 1.641510 5.199262
v -9.735689 1.997283 3.051231
v -6.485413 1.081999 3.106521
v -4.773099 0.113416 3.230002
v -2.389556 0.113416 3.230002
v -0.006013 0.113416 3.230002
v 2.191225 0.330624 3.193030
v 4.389050 0.687303 2.994032
v 6.492299 0.925498 2.541961
v 9.528159 2.015823 3.230002
v -9.540185 2.014416 0.623366
v -7.900749 1.235720 0.577471
v -4.773099 0.113416 0.623366
v -2.389556 0.113416 0.623366
v -0.006013 0.113416 0.623366
v 2.313468 0.207309 0.601090
v 4.550188 0.493411 0.436260
v 6.948828 1.015328 0.429865
v 9.249258 1.977824 0.368335
v -9.540185 2.015826 -1.983270
v -7.159156 0.362835 -1.983377
v -4.773099 0.113416 -1.983270
v -2.389556 0.113416 -1.983270
v -0.006013 0.113416 -1.983270
v 2.377530 0.113416 -1.983270
v 4.679924 0.524384 -2.063730
v 7.053817 1.279969 -2.073577
v 9.528159 2.015829 -1.983270
v -9.540185 2.015829 -4.589906
v -7.156642 0.113416 -4.589906
v -4.773099 0.113416 -4.589906
v -2.389556 0.113416 -4.589906
v -0.006013 0.113416 -4.589906
v 2.377530 0.113416 -4.589906
v 4.789845 0.173300 -4.626027
v 7.144615 2.013365 -4.589906
v 9.528159 1.906937 -4.589906
v -9.540185 2.015818 -7.196543
v -6.821777 1.177946 -6.830335
v -4.773099 0.113416 -7.196543
v -2.389556 0.113416 -7.196543
v 0.899199 0.749358 -7.109993
v 3.007503 0.568035 -6.680463
v 4.761073 0.113416 -7.196543
v 6.526634 1.341603 -7.249918
v 9.528159 2.015829 -7.196543
v -9.540185 1.953422 -9.803180
v -7.156642 2.010089 -9.803180
v -4.773099 1.983041 -9.803180
v -2.364560 1.367251 -10.664638
v 0.148650 1.347761 -9.919579
v 2.377530 1.790602 -9.803180
v 4.668071 2.009278 -9.888222
v 6.819747 1.957527 -10.127356
v 9.528159 1.042719 -9.803180
v -9.540185 0.113416 -12.409815
v -7.156642 2.015788 -12.409815
v -4.773099 1.989536 -12.409815
v -2.389556 0.653475 -12.409815
v -0.006013 1.995171 -12.409815
v 2.377530 2.013181 -12.409815
v 4.761073 1.170842 -12.409815
v 7.022545 1.487132 -12.521439
v 9.453634 0.495707 -12.477962
vt 0.375000 0.250000
vt 0.406250 0.250000
vt 0.437500 0.250000
vt 0.468750 0.250000
vt 0.500000 0.250000
vt 0.531250 0.250000
vt 0.562500 0.250000
vt 0.593750 0.250000
vt 0.625000 0.250000
vt 0.375000 0.277778
vt 0.406250 0.277778
vt 0.437500 0.277778
vt 0.468750 0.277778
vt 0.500000 0.277778
vt 0.531250 0.277778
vt 0.562500 0.277778
vt 0.593750 0.277778
vt 0.625000 0.277778
vt 0.375000 0.305556
vt 0.406250 0.305556
vt 0.437500 0.305556
vt 0.468750 0.305556
vt 0.500000 0.305556
vt 0.531250 0.305556
vt 0.562500 0.305556
vt 0.593750 0.305556
vt 0.625000 0.305556
vt 0.375000 0.333333
vt 0.406250 0.333333
vt 0.437500 0.333333
vt 0.468750 0.333333
vt 0.500000 0.333333
vt 0.531250 0.333333
vt 0.562500 0.333333
vt 0.593750 0.333333
vt 0.625000 0.333333
vt 0.375000 0.361111
vt 0.406250 0.361111
vt 0.437500 0.361111
vt 0.468750 0.361111
vt 0.500000 0.361111
vt 0.531250 0.361111
vt 0.562500 0.361111
vt 0.593750 0.361111
vt 0.625000 0.361111
vt 0.375000 0.388889
vt 0.406250 0.388889
vt 0.437500 0.388889
vt 0.468750 0.388889
vt 0.500000 0.388889
vt 0.531250 0.388889
vt 0.562500 0.388889
vt 0.593750 0.388889
vt 0.625000 0.388889
vt 0.375000 0.416667
vt 0.406250 0.416667
vt 0.437500 0.416667
vt 0.468750 0.416667
vt 0.500000 0.416667
vt 0.531250 0.416667
vt 0.562500 0.416667
vt 0.593750 0.416667
vt 0.625000 0.416667
vt 0.375000 0.444445
vt 0.406250 0.444445
vt 0.437500 0.444445
vt 0.468750 0.444445
vt 0.500000 0.444445
vt 0.531250 0.444445
vt 0.562500 0.444445
vt 0.593750 0.444445
vt 0.625000 0.444445
vt 0.375000 0.472222
vt 0.406250 0.472222
vt 0.437500 0.472222
vt 0.468750 0.472222
vt 0.500000 0.472222
vt 0.531250 0.472222
vt 0.562500 0.472222
vt 0.593750 0.472222
vt 0.625000 0.472222
vt 0.375000 0.500000
vt 0.406250 0.500000
vt 0.437500 0.500000
vt 0.468750 0.500000
vt 0.500000 0.500000
vt 0.531250 0.500000
vt 0.562500 0.500000
vt 0.593750 0.500000
vt 0.625000 0.500000
vn -0.111359 0.790496 0.602258
vn 0.009781 0.862790 0.505467
vn 0.111708 0.961505 0.251055
vn 0.026344 0.981814 0.188007
vn 0.051891 0.844652 0.532795
vn -0.040293 0.963033 0.266352
vn -0.002499 0.838772 0.544478
vn 0.185925 0.982002 0.033229
vn -0.138168 0.916690 0.374952
vn 0.069735 0.989911 -0.123340
vn -0.305482 0.951970 0.020846
vn -0.236208 0.956025 -0.173845
vn -0.385072 0.922597 -0.023101
vn -0.470448 0.869355 -0.151329
vn 0.259130 0.860516 0.438593
vn -0.210335 0.961760 -0.175432
vn 0.722763 0.410657 0.555855
vn 0.460827 0.885804 0.054685
vn 0.049419 0.997095 0.057968
vn 0.089918 0.994674 -0.050375
vn 0.295352 0.901703 -0.315751
vn 0.255566 0.914405 -0.313926
vn -0.013721 0.987635 -0.156170
vn -0.196817 0.968295 -0.153841
vn -0.323459 0.928927 -0.180190
vn -0.225126 0.919770 -0.321467
vn 0.004386 0.942928 -0.332966
vn 0.247852 0.965337 -0.081811
vn 0.331889 0.925031 -0.184846
vn 0.274782 0.948916 -0.155093
vn 0.000000 1.000000 0.000000
vn -0.040351 0.999059 0.015899
vn -0.152785 0.988162 -0.013879
vn -0.167118 0.977600 -0.127942
vn -0.239811 0.963329 -0.120362
vn -0.274307 0.958973 -0.071594
vn 0.387763 0.915046 -0.111048
vn 0.429419 0.902873 0.020480
vn 0.185934 0.979642 -0.075692
vn 0.000000 1.000000 0.000000
vn -0.023840 0.999676 -0.008919
vn -0.084540 0.995461 -0.043708
vn -0.168559 0.985123 -0.033481
vn -0.308284 0.950920 0.026681
vn -0.366680 0.929731 0.033848
vn 0.554367 0.831308 -0.040050
vn 0.381309 0.919868 -0.091901
vn 0.044895 0.998843 -0.017252
vn 0.000000 1.000000 0.000000
vn -0.002829 0.999975 -0.006465
vn -0.083099 0.996474 -0.011588
vn -0.225531 0.973634 -0.034235
vn -0.371477 0.922801 0.102191
vn -0.242143 0.966144 0.089061
vn 0.538375 0.836051 0.105695
vn 0.336229 0.926406 0.169474
vn 0.051324 0.995744 0.076550
vn -0.000000 1.000000 0.000000
vn -0.029558 0.996479 0.078455
vn -0.021822 0.996624 0.079142
vn -0.312015 0.950041 0.008306
vn -0.325346 0.944998 0.033596
vn 0.044607 0.999005 0.000000
vn 0.383647 0.875391 0.294118
vn 0.243923 0.963515 0.110180
vn 0.212284 0.925852 0.312625
vn -0.053726 0.964592 0.258216
vn -0.112145 0.958666 0.261500
vn 0.149329 0.962824 0.225101
vn -0.148852 0.959922 0.237472
vn -0.388824 0.911324 0.135294
vn -0.090582 0.993949 -0.062137
vn 0.029763 0.994809 0.097309
vn -0.219046 0.957404 -0.188138
vn 0.184757 0.955547 0.229770
vn 0.102265 0.986577 0.127311
vn -0.134810 0.956468 0.258834
vn -0.102503 0.953182 0.284495
vn -0.033060 0.984946 0.169670
vn 0.124017 0.985679 -0.114266
vn 0.345269 0.904955 -0.248689
vn -0.294142 0.919591 -0.260445
vn -0.546190 0.684339 -0.483070
vn 0.182223 0.979929 -0.080828
vn 0.000828 0.925572 -0.378570
vn -0.142378 0.983370 0.112743
vn 0.089308 0.995967 -0.008553
vn 0.102816 0.958038 -0.267567
vn 0.159601 0.967749 -0.194908
vn 0.373306 0.906800 -0.195848
s 1
g pCube1
usemtl initialShadingGroup
f 1/1/1 2/2/2 10/10/3
f 10/10/3 2/2/2 11/11/4
f 3/3/5 12/12/6 2/2/2
f 2/2/2 12/12/6 11/11/4
f 3/3/5 4/4/7 12/12/6
f 12/12/6 4/4/7 13/13/8
f 4/4/7 5/5/9 13/13/8
f 13/13/8 5/5/9 14/14/10
f 5/5/9 6/6/11 14/14/10
f 14/14/10 6/6/11 15/15/12
f 6/6/11 7/7/13 15/15/12
f 15/15/12 7/7/13 16/16/14
f 7/7/13 8/8/15 16/16/14
f 16/16/14 8/8/15 17/17/16
f 9/9/17 18/18/18 8/8/15
f 8/8/15 18/18/18 17/17/16
f 10/10/3 11/11/4 19/19/19
f 19/19/19 11/11/4 20/20/20
f 11/11/4 12/12/6 20/20/20
f 20/20/20 12/12/6 21/21/21
f 12/12/6 13/13/8 21/21/21
f 21/21/21 13/13/8 22/22/22
f 13/13/8 14/14/10 22/22/22
f 22/22/22 14/14/10 23/23/23
f 14/14/10 15/15/12 23/23/23
f 23/23/23 15/15/12 24/24/24
f 16/16/14 25/25/25 15/15/12
f 15/15/12 25/25/25 24/24/24
f 17/17/16 26/26/26 16/16/14
f 16/16/14 26/26/26 25/25/25
f 18/18/18 27/27/27 17/17/16
f 17/17/16 27/27/27 26/26/26
f 19/19/19 20/20/20 28/28/28
f 28/28/28 20/20/20 29/29/29
f 20/20/20 21/21/21 29/29/29
f 29/29/29 21/21/21 30/30/30
f 21/21/21 22/22/22 30/30/30
f 30/30/30 22/22/22 31/31/31
f 22/22/22 23/23/23 31/31/31
f 31/31/31 23/23/23 32/32/32
f 23/23/23 24/24/24 32/32/32
f 32/32/32 24/24/24 33/33/33
f 24/24/24 25/25/25 33/33/33
f 33/33/33 25/25/25 34/34/34
f 25/25/25 26/26/26 34/34/34
f 34/34/34 26/26/26 35/35/35
f 27/27/27 36/36/36 26/26/26
f 26/26/26 36/36/36 35/35/35
f 29/29/29 38/38/37 28/28/28
f 28/28/28 38/38/37 37/37/38
f 30/30/30 39/39/39 29/29/29
f 29/29/29 39/39/39 38/38/37
f 30/30/30 31/31/31 39/39/39
f 39/39/39 31/31/31 40/40/40
f 31/31/31 32/32/32 40/40/40
f 40/40/40 32/32/32 41/41/41
f 32/32/32 33/33/33 41/41/41
f 41/41/41 33/33/33 42/42/42
f 33/33/33 34/34/34 42/42/42
f 42/42/42 34/34/34 43/43/43
f 34/34/34 35/35/35 43/43/43
f 43/43/43 35/35/35 44/44/44
f 35/35/35 36/36/36 44/44/44
f 44/44/44 36/36/36 45/45/45
f 37/37/38 38/38/37 46/46/46
f 46/46/46 38/38/37 47/47/47
f 38/38/37 39/39/39 47/47/47
f 47/47/47 39/39/39 48/48/48
f 39/39/39 40/40/40 48/48/48
f 48/48/48 40/40/40 49/49/49
f 40/40/40 41/41/41 49/49/49
f 49/49/49 41/41/41 50/50/50
f 41/41/41 42/42/42 50/50/50
f 50/50/50 42/42/42 51/51/51
f 42/42/42 43/43/43 51/51/51
f 51/51/51 43/43/43 52/52/52
f 43/43/43 44/44/44 52/52/52
f 52/52/52 44/44/44 53/53/53
f 44/44/44 45/45/45 53/53/53
f 53/53/53 45/45/45 54/54/54
f 46/46/46 47/47/47 55/55/55
f 55/55/55 47/47/47 56/56/56
f 47/47/47 48/48/48 56/56/56
f 56/56/56 48/48/48 57/57/57
f 48/48/48 49/49/49 57/57/57
f 57/57/57 49/49/49 58/58/58
f 49/49/49 50/50/50 58/58/58
f 58/58/58 50/50/50 59/59/59
f 50/50/50 51/51/51 59/59/59
f 59/59/59 51/51/51 60/60/60
f 51/51/51 52/52/52 60/60/60
f 60/60/60 52/52/52 61/61/61
f 52/52/52 53/53/53 61/61/61
f 61/61/61 53/53/53 62/62/62
f 53/53/53 54/54/54 62/62/62
f 62/62/62 54/54/54 63/63/63
f 56/56/56 65/65/64 55/55/55
f 55/55/55 65/65/64 64/64/65
f 56/56/56 57/57/57 65/65/64
f 65/65/64 57/57/57 66/66/66
f 57/57/57 58/58/58 66/66/66
f 66/66/66 58/58/58 67/67/67
f 58/58/58 59/59/59 67/67/67
f 67/67/67 59/59/59 68/68/68
f 59/59/59 60/60/60 68/68/68
f 68/68/68 60/60/60 69/69/69
f 60/60/60 61/61/61 69/69/69
f 69/69/69 61/61/61 70/70/70
f 62/62/62 71/71/71 61/61/61
f 61/61/61 71/71/71 70/70/70
f 63/63/63 72/72/72 62/62/62
f 62/62/62 72/72/72 71/71/71
f 65/65/64 74/74/73 64/64/65
f 64/64/65 74/74/73 73/73/74
f 66/66/66 75/75/75 65/65/64
f 65/65/64 75/75/75 74/74/73
f 66/66/66 67/67/67 75/75/75
f 75/75/75 67/67/67 76/76/76
f 68/68/68 77/77/77 67/67/67
f 67/67/67 77/77/77 76/76/76
f 69/69/69 78/78/78 68/68/68
f 68/68/68 78/78/78 77/77/77
f 69/69/69 70/70/70 78/78/78
f 78/78/78 70/70/70 79/79/79
f 70/70/70 71/71/71 79/79/79
f 79/79/79 71/71/71 80/80/80
f 81/81/81 80/80/80 72/72/72
f 71/71/71 72/72/72 80/80/80
f 74/74/73 83/83/82 73/73/74
f 73/73/74 83/83/82 82/82/83
f 74/74/73 75/75/75 83/83/82
f 83/83/82 75/75/75 84/84/84
f 75/75/75 76/76/76 84/84/84
f 84/84/84 76/76/76 85/85/85
f 77/77/77 86/86/86 76/76/76
f 76/76/76 86/86/86 85/85/85
f 78/78/78 87/87/87 77/77/77
f 77/77/77 87/87/87 86/86/86
f 78/78/78 79/79/79 87/87/87
f 87/87/87 79/79/79 88/88/88
f 79/79/79 80/80/80 88/88/88
f 88/88/88 80/80/80 89/89/89
f 80/80/80 81/81/81 89/89/89
f 89/89/89 81/81/81 90/90/90
